<svg width="280" height="280" viewBox="0 0 280 280" fill="none" xmlns="http://www.w3.org/2000/svg">
<g id="001">
<g id="img/sun">
<path id="Vector" d="M225.8 189.6C225.8 189.6 213.1 175.4 202.6 169.4C202.2 169.1 201.7 168.9 201.3 168.7C211.5 171.4 224.4 171.9 224.4 171.9C224.4 171.9 216.4 165.5 208 160.8C212.9 160.9 216.6 160.7 216.6 160.7C216.6 160.7 209.3 156 201.7 152.6C209.7 152.3 217.6 150.9 217.6 150.9C217.6 150.9 212.4 148.4 206.2 146.1C207 146.1 207.9 146.1 208.8 146.1C220.9 146.1 239 140.2 239 140.2C239 140.2 220.9 134.3 208.8 134.3C208.3 134.3 207.8 134.3 207.3 134.3C217.4 131.5 228.9 125.6 228.9 125.6C228.9 125.6 218.8 124.1 209.2 124.1C213.5 121.7 216.6 119.7 216.6 119.7C216.6 119.7 207.9 119.2 199.6 120.1C206.4 115.9 212.5 110.7 212.5 110.7C212.5 110.7 206.7 111.1 200.2 112.3C200.9 111.9 201.7 111.5 202.5 111C213 105 225.7 90.8 225.7 90.8C225.7 90.8 207.1 94.7 196.6 100.8C196.2 101.1 195.8 101.3 195.3 101.6C202.7 94.1 209.7 83.2 209.7 83.2C209.7 83.2 200.2 86.9 191.9 91.8C194.4 87.6 196.1 84.3 196.1 84.3C196.1 84.3 188.3 88.2 181.6 93.1C185.3 86.1 188.1 78.5 188.1 78.5C188.1 78.5 183.3 81.8 178.3 86C178.7 85.3 179.2 84.6 179.6 83.8C185.6 73.4 189.6 54.7 189.6 54.7C189.6 54.7 175.5 67.5 169.5 78C169.2 78.4 169 78.9 168.8 79.3C171.5 69.1 172 56.2 172 56.2C172 56.2 165.6 64.2 160.9 72.5C161 67.6 160.8 63.9 160.8 63.9C160.8 63.9 156 71.2 152.6 78.8C152.3 70.9 150.9 62.9 150.9 62.9C150.9 62.9 148.4 68.1 146.1 74.3C146.1 73.5 146.1 72.6 146.1 71.7C146.1 59.6 140.2 41.5 140.2 41.5C140.2 41.5 134.3 59.6 134.3 71.7C134.3 72.2 134.3 72.7 134.3 73.2C131.5 63.1 125.5 51.6 125.5 51.6C125.5 51.6 124 61.7 124 71.3C121.6 67 119.6 63.9 119.6 63.9C119.6 63.9 119.1 72.6 120 80.9C116 74.1 110.8 68 110.8 68C110.8 68 111.2 73.8 112.4 80.3C112 79.6 111.6 78.8 111.1 78C105.1 67.5 91 54.8 91 54.8C91 54.8 94.9 73.4 101 83.9C101.3 84.3 101.5 84.8 101.8 85.2C94.3 77.8 83.4 70.8 83.4 70.8C83.4 70.8 87.1 80.3 92 88.6C87.8 86.1 84.5 84.4 84.5 84.4C84.5 84.4 88.4 92.2 93.3 98.9C86.3 95.2 78.7 92.4 78.7 92.4C78.7 92.4 82 97.2 86.2 102.2C85.5 101.8 84.8 101.3 84 100.9C73.5 94.9 54.9 90.9 54.9 90.9C54.9 90.9 67.6 105.1 78 111.1C78.4 111.4 78.9 111.6 79.3 111.8C69.1 109.1 56.2 108.6 56.2 108.6C56.2 108.6 64.2 115 72.5 119.7C67.6 119.6 63.9 119.8 63.9 119.8C63.9 119.8 71.2 124.5 78.8 127.9C70.8 128.2 62.9 129.6 62.9 129.6C62.9 129.6 68.1 132.1 74.3 134.4C73.5 134.4 72.6 134.4 71.7 134.4C59.6 134.4 41.5 140.3 41.5 140.3C41.5 140.3 59.6 146.2 71.7 146.2C72.2 146.2 72.7 146.2 73.2 146.2C63.1 149 51.5 155 51.5 155C51.5 155 61.6 156.5 71.2 156.5C66.9 158.9 63.8 160.9 63.8 160.9C63.8 160.9 72.5 161.4 80.8 160.5C74 164.7 67.9 169.9 67.9 169.9C67.9 169.9 73.7 169.5 80.2 168.3C79.5 168.7 78.7 169.1 77.9 169.6C67.4 175.6 54.7 189.8 54.7 189.8C54.7 189.8 73.3 185.9 83.8 179.8C84.2 179.5 84.7 179.3 85.1 179C77.7 186.5 70.7 197.4 70.7 197.4C70.7 197.4 80.2 193.7 88.5 188.8C86 193 84.3 196.3 84.3 196.3C84.3 196.3 92.1 192.4 98.8 187.5C95.1 194.5 92.3 202.1 92.3 202.1C92.3 202.1 97.1 198.8 102.1 194.6C101.7 195.3 101.2 196 100.8 196.8C94.8 207.2 90.8 225.9 90.8 225.9C90.8 225.9 105 213.2 111 202.7C111.3 202.3 111.5 201.8 111.7 201.4C109 211.6 108.5 224.5 108.5 224.5C108.5 224.5 114.9 216.5 119.6 208.2C119.5 213.1 119.7 216.8 119.7 216.8C119.7 216.8 124.5 209.5 127.9 201.9C128.2 209.9 129.6 217.8 129.6 217.8C129.6 217.8 132.1 212.6 134.4 206.4C134.4 207.2 134.4 208.1 134.4 209C134.4 221.1 140.3 239.2 140.3 239.2C140.3 239.2 146.2 221.1 146.2 209C146.2 208.5 146.2 208 146.2 207.5C149 217.6 155 229.1 155 229.1C155 229.1 156.5 219 156.5 209.4C158.9 213.7 160.9 216.8 160.9 216.8C160.9 216.8 161.4 208.1 160.5 199.8C164.7 206.6 169.9 212.7 169.9 212.7C169.9 212.7 169.5 206.9 168.3 200.4C168.7 201.1 169.1 201.9 169.6 202.7C175.6 213.1 189.8 225.9 189.8 225.9C189.8 225.9 185.9 207.3 179.8 196.8C179.5 196.4 179.3 195.9 179 195.5C186.5 202.9 197.4 209.9 197.4 209.9C197.4 209.9 193.7 200.4 188.8 192.1C193 194.6 196.3 196.3 196.3 196.3C196.3 196.3 192.4 188.5 187.5 181.8C194.5 185.5 202.1 188.3 202.1 188.3C202.1 188.3 198.8 183.5 194.6 178.5C195.3 178.9 196 179.4 196.8 179.9C207.2 185.7 225.8 189.6 225.8 189.6Z" fill="url(#paint0_radial)"/>
<path id="Vector_2" d="M140.3 76.6C175.5 76.6 204 105.1 204 140.2C204 175.3 175.5 203.8 140.3 203.8C105.1 203.8 76.6 175.3 76.6 140.2C76.7 105.1 105.2 76.6 140.3 76.6Z" fill="url(#paint1_linear)"/>
<path id="Vector_3" d="M140.3 83C160.5 83 180 94.3 184.6 111.3C190.4 132.7 171.3 154.7 140.3 154.7C109.3 154.7 90.2 132.7 96 111.3C100.7 94.3 120.1 83 140.3 83Z" fill="url(#paint2_linear)"/>
</g>
</g>
<defs>
<radialGradient id="paint0_radial" cx="0" cy="0" r="1" gradientUnits="userSpaceOnUse" gradientTransform="translate(140.25 140.35) rotate(90) scale(98.85 98.75)">
<stop stop-color="#FFE31A"/>
<stop offset="1" stop-color="#FFC43A"/>
</radialGradient>
<linearGradient id="paint1_linear" x1="140.3" y1="76.6" x2="140.3" y2="203.8" gradientUnits="userSpaceOnUse">
<stop stop-color="#FFA100"/>
<stop offset="1" stop-color="#FFE31A"/>
</linearGradient>
<linearGradient id="paint2_linear" x1="140.3" y1="83" x2="140.3" y2="154.7" gradientUnits="userSpaceOnUse">
<stop stop-color="#FFD300"/>
<stop offset="1" stop-color="#FFC90F"/>
</linearGradient>
</defs>
</svg>
