<svg width="280" height="280" viewBox="0 0 280 280" fill="none" xmlns="http://www.w3.org/2000/svg">
<g id="005">
<g id="img/sun">
<mask id="mask0" mask-type="alpha" maskUnits="userSpaceOnUse" x="41" y="21" width="198" height="151">
<rect id="Rectangle 1" x="41" y="21" width="198" height="151" fill="#C4C4C4"/>
</mask>
<g mask="url(#mask0)">
<path id="Vector" d="M225.8 169.6C225.8 169.6 213.1 155.4 202.6 149.4C202.2 149.1 201.7 148.9 201.3 148.7C211.5 151.4 224.4 151.9 224.4 151.9C224.4 151.9 216.4 145.5 208 140.8C212.9 140.9 216.6 140.7 216.6 140.7C216.6 140.7 209.3 136 201.7 132.6C209.7 132.3 217.6 130.9 217.6 130.9C217.6 130.9 212.4 128.4 206.2 126.1C207 126.1 207.9 126.1 208.8 126.1C220.9 126.1 239 120.2 239 120.2C239 120.2 220.9 114.3 208.8 114.3C208.3 114.3 207.8 114.3 207.3 114.3C217.4 111.5 228.9 105.6 228.9 105.6C228.9 105.6 218.8 104.1 209.2 104.1C213.5 101.7 216.6 99.7 216.6 99.7C216.6 99.7 207.9 99.2 199.6 100.1C206.4 95.9 212.5 90.7 212.5 90.7C212.5 90.7 206.7 91.1 200.2 92.3C200.9 91.9 201.7 91.5 202.5 91C213 85 225.7 70.8 225.7 70.8C225.7 70.8 207.1 74.7 196.6 80.8C196.2 81.1 195.8 81.3 195.3 81.6C202.7 74.1 209.7 63.2 209.7 63.2C209.7 63.2 200.2 66.9 191.9 71.8C194.4 67.6 196.1 64.3 196.1 64.3C196.1 64.3 188.3 68.2 181.6 73.1C185.3 66.1 188.1 58.5 188.1 58.5C188.1 58.5 183.3 61.8 178.3 66C178.7 65.3 179.2 64.6 179.6 63.8C185.6 53.4 189.6 34.7 189.6 34.7C189.6 34.7 175.5 47.5 169.5 58C169.2 58.4 169 58.9 168.8 59.3C171.5 49.1 172 36.2 172 36.2C172 36.2 165.6 44.2 160.9 52.5C161 47.6 160.8 43.9 160.8 43.9C160.8 43.9 156 51.2 152.6 58.8C152.3 50.9 150.9 42.9 150.9 42.9C150.9 42.9 148.4 48.1 146.1 54.3C146.1 53.5 146.1 52.6 146.1 51.7C146.1 39.6 140.2 21.5 140.2 21.5C140.2 21.5 134.3 39.6 134.3 51.7C134.3 52.2 134.3 52.7 134.3 53.2C131.5 43.1 125.5 31.6 125.5 31.6C125.5 31.6 124 41.7 124 51.3C121.6 47 119.6 43.9 119.6 43.9C119.6 43.9 119.1 52.6 120 60.9C116 54.1 110.8 48 110.8 48C110.8 48 111.2 53.8 112.4 60.3C112 59.6 111.6 58.8 111.1 58C105.1 47.5 91 34.8 91 34.8C91 34.8 94.9 53.4 101 63.9C101.3 64.3 101.5 64.8 101.8 65.2C94.3 57.8 83.4 50.8 83.4 50.8C83.4 50.8 87.1 60.3 92 68.6C87.8 66.1 84.5 64.4 84.5 64.4C84.5 64.4 88.4 72.2 93.3 78.9C86.3 75.2 78.7 72.4 78.7 72.4C78.7 72.4 82 77.2 86.2 82.2C85.5 81.8 84.8 81.3 84 80.9C73.5 74.9 54.9 70.9 54.9 70.9C54.9 70.9 67.6 85.1 78 91.1C78.4 91.4 78.9 91.6 79.3 91.8C69.1 89.1 56.2 88.6 56.2 88.6C56.2 88.6 64.2 95 72.5 99.7C67.6 99.6 63.9 99.8 63.9 99.8C63.9 99.8 71.2 104.5 78.8 107.9C70.8 108.2 62.9 109.6 62.9 109.6C62.9 109.6 68.1 112.1 74.3 114.4C73.5 114.4 72.6 114.4 71.7 114.4C59.6 114.4 41.5 120.3 41.5 120.3C41.5 120.3 59.6 126.2 71.7 126.2C72.2 126.2 72.7 126.2 73.2 126.2C63.1 129 51.5 135 51.5 135C51.5 135 61.6 136.5 71.2 136.5C66.9 138.9 63.8 140.9 63.8 140.9C63.8 140.9 72.5 141.4 80.8 140.5C74 144.7 67.9 149.9 67.9 149.9C67.9 149.9 73.7 149.5 80.2 148.3C79.5 148.7 78.7 149.1 77.9 149.6C67.4 155.6 54.7 169.8 54.7 169.8C54.7 169.8 73.3 165.9 83.8 159.8C84.2 159.5 84.7 159.3 85.1 159C77.7 166.5 70.7 177.4 70.7 177.4C70.7 177.4 80.2 173.7 88.5 168.8C86 173 84.3 176.3 84.3 176.3C84.3 176.3 92.1 172.4 98.8 167.5C95.1 174.5 92.3 182.1 92.3 182.1C92.3 182.1 97.1 178.8 102.1 174.6C101.7 175.3 101.2 176 100.8 176.8C94.8 187.2 90.8 205.9 90.8 205.9C90.8 205.9 105 193.2 111 182.7C111.3 182.3 111.5 181.8 111.7 181.4C109 191.6 108.5 204.5 108.5 204.5C108.5 204.5 114.9 196.5 119.6 188.2C119.5 193.1 119.7 196.8 119.7 196.8C119.7 196.8 124.5 189.5 127.9 181.9C128.2 189.9 129.6 197.8 129.6 197.8C129.6 197.8 132.1 192.6 134.4 186.4C134.4 187.2 134.4 188.1 134.4 189C134.4 201.1 140.3 219.2 140.3 219.2C140.3 219.2 146.2 201.1 146.2 189C146.2 188.5 146.2 188 146.2 187.5C149 197.6 155 209.1 155 209.1C155 209.1 156.5 199 156.5 189.4C158.9 193.7 160.9 196.8 160.9 196.8C160.9 196.8 161.4 188.1 160.5 179.8C164.7 186.6 169.9 192.7 169.9 192.7C169.9 192.7 169.5 186.9 168.3 180.4C168.7 181.1 169.1 181.9 169.6 182.7C175.6 193.1 189.8 205.9 189.8 205.9C189.8 205.9 185.9 187.3 179.8 176.8C179.5 176.4 179.3 175.9 179 175.5C186.5 182.9 197.4 189.9 197.4 189.9C197.4 189.9 193.7 180.4 188.8 172.1C193 174.6 196.3 176.3 196.3 176.3C196.3 176.3 192.4 168.5 187.5 161.8C194.5 165.5 202.1 168.3 202.1 168.3C202.1 168.3 198.8 163.5 194.6 158.5C195.3 158.9 196 159.4 196.8 159.9C207.2 165.7 225.8 169.6 225.8 169.6Z" fill="url(#paint0_radial)"/>
<path id="Vector_2" d="M140.3 56.6C175.5 56.6 204 85.1 204 120.2C204 155.3 175.5 183.8 140.3 183.8C105.1 183.8 76.6 155.3 76.6 120.2C76.7 85.1 105.2 56.6 140.3 56.6Z" fill="url(#paint1_linear)"/>
<path id="Vector_3" d="M140.3 63C160.5 63 180 74.3 184.6 91.3C190.4 112.7 171.3 134.7 140.3 134.7C109.3 134.7 90.2 112.7 96 91.3C100.7 74.3 120.1 63 140.3 63Z" fill="url(#paint2_linear)"/>
</g>
</g>
<g id="img/clouds0">
<path id="Vector_4" d="M34 178.232C34 188.977 44.0188 197.719 56.342 197.719C64.1566 197.719 71.0696 194.167 75.0771 188.795C81.5894 195.897 92.4097 200.632 104.733 200.632C115.653 200.632 125.372 196.99 131.984 191.162C139.899 198.447 150.92 203 163.243 203C178.572 203 191.997 195.988 199.711 185.334C202.617 194.167 211.834 200.632 222.855 200.632C236.18 200.632 247 191.162 247 179.507C247 169.581 239.185 161.386 228.666 159.109C228.966 157.743 229.066 156.286 229.066 154.829C229.066 143.083 219.949 133.613 208.728 133.613C207.826 133.613 206.925 133.704 206.023 133.795C206.023 133.522 206.023 133.248 206.023 132.884C206.023 110.848 188.891 93 167.851 93C150.318 93 135.491 105.384 131.082 122.321C126.674 117.586 120.563 114.672 113.85 114.672C101.126 114.672 90.7065 125.144 89.905 138.257C86.198 135.343 81.6896 133.613 76.6801 133.613C64.4572 133.613 54.5386 143.993 54.5386 156.742C54.5386 157.47 54.5386 158.108 54.6388 158.836C43.2173 159.474 34 167.942 34 178.232Z" fill="url(#paint3_linear)" stroke="white" stroke-width="2" stroke-miterlimit="10"/>
<path id="Vector_5" d="M235 194.552C235 202.938 226.773 209.807 216.668 209.807C210.23 209.807 204.596 207.041 201.288 202.849C195.922 208.469 187.069 212.127 176.875 212.127C167.933 212.127 159.974 209.272 154.52 204.722C147.992 210.432 138.96 214 128.855 214C116.336 214 105.248 208.469 98.8988 200.172C96.4844 207.041 88.8835 212.127 79.8518 212.127C68.9423 212.127 60 204.722 60 195.622C60 187.861 66.4384 181.438 75.023 179.654C74.8441 178.583 74.6653 177.423 74.6653 176.353C74.6653 167.164 82.0874 159.759 91.2979 159.759C92.1027 159.759 92.8181 159.849 93.5335 159.938C93.5335 159.67 93.5335 159.492 93.5335 159.224C93.5335 142.006 107.573 128 124.921 128C139.318 128 151.479 137.724 155.146 150.927C158.723 147.27 163.73 144.95 169.274 144.95C179.737 144.95 188.321 153.158 188.947 163.417C191.988 161.187 195.743 159.759 199.768 159.759C209.783 159.759 217.92 167.878 217.92 177.869C217.92 178.405 217.92 178.94 217.831 179.475C227.489 179.921 235 186.523 235 194.552Z" fill="url(#paint4_linear)" stroke="white" stroke-width="2" stroke-miterlimit="10"/>
<path id="Vector_6" d="M210 207.043C210 213.119 204.138 218.057 196.857 218.057C192.224 218.057 188.253 216.063 185.889 213.024C182.107 217.012 175.677 219.671 168.491 219.671C162.061 219.671 156.388 217.582 152.511 214.354C147.878 218.436 141.354 221 134.168 221C125.185 221 117.337 217.012 112.799 211.031C111.097 215.968 105.707 219.576 99.1831 219.576C91.3351 219.576 85 214.259 85 207.708C85 202.106 89.5386 197.453 95.6846 196.219C95.4955 195.459 95.4009 194.605 95.4009 193.845C95.4009 187.294 100.696 181.882 107.315 181.882C107.882 181.882 108.355 181.977 108.922 181.977C108.922 181.787 108.922 181.692 108.922 181.502C108.922 169.064 118.945 159 131.331 159C141.638 159 150.242 166.026 152.89 175.521C155.443 172.862 159.036 171.248 163.007 171.248C170.477 171.248 176.623 177.135 177.001 184.541C179.175 182.926 181.823 181.977 184.754 181.977C191.94 181.977 197.708 187.769 197.708 194.985C197.708 195.364 197.708 195.744 197.613 196.124C204.61 196.504 210 201.251 210 207.043Z" fill="url(#paint5_linear)" stroke="white" stroke-width="2" stroke-miterlimit="10"/>
</g>
<g id="img/drops3">
<g id="img/drop1">
<path id="Vector_7" d="M91.0443 212.105C87.8615 226.084 82.4053 233.985 84.5272 241.43C86.4975 248.875 94.2271 253.281 101.654 251.306C109.08 249.331 113.475 241.582 111.505 234.137C109.383 226.692 101.502 222.589 91.0443 212.105Z" fill="url(#paint6_linear)" stroke="#6B92A8" stroke-width="2" stroke-miterlimit="10"/>
<path id="Vector_8" d="M100.896 234.137C102.866 241.43 99.9865 245.532 95.4396 246.748C94.5303 247.052 93.6209 247.052 92.7115 246.9C94.9849 248.115 97.713 248.419 100.441 247.812C106.201 246.292 109.535 240.366 108.019 234.745C106.504 228.971 92.4084 217.727 92.4084 217.727C92.4084 217.727 98.9255 226.844 100.896 234.137Z" fill="white"/>
</g>
<g id="img/drop1_2">
<path id="Vector_9" d="M174.896 212.105C171.713 226.084 166.257 233.985 168.379 241.43C170.349 248.875 178.079 253.281 185.505 251.306C192.932 249.331 197.327 241.582 195.357 234.137C193.235 226.692 185.354 222.589 174.896 212.105Z" fill="url(#paint7_linear)" stroke="#6B92A8" stroke-width="2" stroke-miterlimit="10"/>
<path id="Vector_10" d="M184.747 234.137C186.718 241.43 183.838 245.532 179.291 246.748C178.382 247.052 177.472 247.052 176.563 246.9C178.836 248.115 181.565 248.419 184.293 247.812C190.052 246.292 193.386 240.366 191.871 234.745C190.355 228.971 176.26 217.727 176.26 217.727C176.26 217.727 182.777 226.844 184.747 234.137Z" fill="white"/>
</g>
<g id="img/drop1_3">
<path id="Vector_11" d="M132.97 229.275C129.787 243.253 124.331 251.154 126.453 258.599C128.423 266.045 136.153 270.451 143.579 268.476C151.006 266.5 155.401 258.751 153.431 251.306C151.309 243.861 143.428 239.759 132.97 229.275Z" fill="url(#paint8_linear)" stroke="#6B92A8" stroke-width="2" stroke-miterlimit="10"/>
<path id="Vector_12" d="M142.822 251.306C144.792 258.599 141.912 262.702 137.365 263.917C136.456 264.221 135.547 264.221 134.637 264.069C136.911 265.285 139.639 265.589 142.367 264.981C148.126 263.462 151.461 257.536 149.945 251.914C148.429 246.14 134.334 234.897 134.334 234.897C134.334 234.897 140.851 244.013 142.822 251.306Z" fill="white"/>
</g>
</g>
</g>
<defs>
<radialGradient id="paint0_radial" cx="0" cy="0" r="1" gradientUnits="userSpaceOnUse" gradientTransform="translate(140.25 120.35) rotate(90) scale(98.85 98.75)">
<stop stop-color="#FFE31A"/>
<stop offset="1" stop-color="#FFC43A"/>
</radialGradient>
<linearGradient id="paint1_linear" x1="140.3" y1="56.6" x2="140.3" y2="183.8" gradientUnits="userSpaceOnUse">
<stop stop-color="#FFA100"/>
<stop offset="1" stop-color="#FFE31A"/>
</linearGradient>
<linearGradient id="paint2_linear" x1="140.3" y1="63" x2="140.3" y2="134.7" gradientUnits="userSpaceOnUse">
<stop stop-color="#FFD300"/>
<stop offset="1" stop-color="#FFC90F"/>
</linearGradient>
<linearGradient id="paint3_linear" x1="140.5" y1="93" x2="140.5" y2="203" gradientUnits="userSpaceOnUse">
<stop stop-color="#F2F2F2" stop-opacity="0.5"/>
<stop offset="1" stop-color="#F2F2F2"/>
</linearGradient>
<linearGradient id="paint4_linear" x1="147.5" y1="128" x2="147.5" y2="214" gradientUnits="userSpaceOnUse">
<stop stop-color="#F2F2F2" stop-opacity="0.5"/>
<stop offset="1" stop-color="#F2F2F2"/>
</linearGradient>
<linearGradient id="paint5_linear" x1="147.5" y1="159" x2="147.5" y2="221" gradientUnits="userSpaceOnUse">
<stop stop-color="#F2F2F2" stop-opacity="0.5"/>
<stop offset="1" stop-color="#F2F2F2"/>
</linearGradient>
<linearGradient id="paint6_linear" x1="98.0129" y1="212.105" x2="98.0129" y2="251.778" gradientUnits="userSpaceOnUse">
<stop stop-color="#1AA1E6"/>
<stop offset="1" stop-color="white"/>
</linearGradient>
<linearGradient id="paint7_linear" x1="181.864" y1="212.105" x2="181.864" y2="251.778" gradientUnits="userSpaceOnUse">
<stop stop-color="#1AA1E6"/>
<stop offset="1" stop-color="white"/>
</linearGradient>
<linearGradient id="paint8_linear" x1="139.939" y1="229.275" x2="139.939" y2="268.947" gradientUnits="userSpaceOnUse">
<stop stop-color="#1AA1E6"/>
<stop offset="1" stop-color="white"/>
</linearGradient>
</defs>
</svg>
