<svg width="280" height="280" viewBox="0 0 280 280" fill="none" xmlns="http://www.w3.org/2000/svg">
<g id="012">
<g id="img/sun">
<mask id="mask0" mask-type="alpha" maskUnits="userSpaceOnUse" x="41" y="21" width="198" height="151">
<rect id="Rectangle 1" x="41" y="21" width="198" height="151" fill="#C4C4C4"/>
</mask>
<g mask="url(#mask0)">
<path id="Vector" d="M225.8 169.6C225.8 169.6 213.1 155.4 202.6 149.4C202.2 149.1 201.7 148.9 201.3 148.7C211.5 151.4 224.4 151.9 224.4 151.9C224.4 151.9 216.4 145.5 208 140.8C212.9 140.9 216.6 140.7 216.6 140.7C216.6 140.7 209.3 136 201.7 132.6C209.7 132.3 217.6 130.9 217.6 130.9C217.6 130.9 212.4 128.4 206.2 126.1C207 126.1 207.9 126.1 208.8 126.1C220.9 126.1 239 120.2 239 120.2C239 120.2 220.9 114.3 208.8 114.3C208.3 114.3 207.8 114.3 207.3 114.3C217.4 111.5 228.9 105.6 228.9 105.6C228.9 105.6 218.8 104.1 209.2 104.1C213.5 101.7 216.6 99.7 216.6 99.7C216.6 99.7 207.9 99.2 199.6 100.1C206.4 95.9 212.5 90.7 212.5 90.7C212.5 90.7 206.7 91.1 200.2 92.3C200.9 91.9 201.7 91.5 202.5 91C213 85 225.7 70.8 225.7 70.8C225.7 70.8 207.1 74.7 196.6 80.8C196.2 81.1 195.8 81.3 195.3 81.6C202.7 74.1 209.7 63.2 209.7 63.2C209.7 63.2 200.2 66.9 191.9 71.8C194.4 67.6 196.1 64.3 196.1 64.3C196.1 64.3 188.3 68.2 181.6 73.1C185.3 66.1 188.1 58.5 188.1 58.5C188.1 58.5 183.3 61.8 178.3 66C178.7 65.3 179.2 64.6 179.6 63.8C185.6 53.4 189.6 34.7 189.6 34.7C189.6 34.7 175.5 47.5 169.5 58C169.2 58.4 169 58.9 168.8 59.3C171.5 49.1 172 36.2 172 36.2C172 36.2 165.6 44.2 160.9 52.5C161 47.6 160.8 43.9 160.8 43.9C160.8 43.9 156 51.2 152.6 58.8C152.3 50.9 150.9 42.9 150.9 42.9C150.9 42.9 148.4 48.1 146.1 54.3C146.1 53.5 146.1 52.6 146.1 51.7C146.1 39.6 140.2 21.5 140.2 21.5C140.2 21.5 134.3 39.6 134.3 51.7C134.3 52.2 134.3 52.7 134.3 53.2C131.5 43.1 125.5 31.6 125.5 31.6C125.5 31.6 124 41.7 124 51.3C121.6 47 119.6 43.9 119.6 43.9C119.6 43.9 119.1 52.6 120 60.9C116 54.1 110.8 48 110.8 48C110.8 48 111.2 53.8 112.4 60.3C112 59.6 111.6 58.8 111.1 58C105.1 47.5 91 34.8 91 34.8C91 34.8 94.9 53.4 101 63.9C101.3 64.3 101.5 64.8 101.8 65.2C94.3 57.8 83.4 50.8 83.4 50.8C83.4 50.8 87.1 60.3 92 68.6C87.8 66.1 84.5 64.4 84.5 64.4C84.5 64.4 88.4 72.2 93.3 78.9C86.3 75.2 78.7 72.4 78.7 72.4C78.7 72.4 82 77.2 86.2 82.2C85.5 81.8 84.8 81.3 84 80.9C73.5 74.9 54.9 70.9 54.9 70.9C54.9 70.9 67.6 85.1 78 91.1C78.4 91.4 78.9 91.6 79.3 91.8C69.1 89.1 56.2 88.6 56.2 88.6C56.2 88.6 64.2 95 72.5 99.7C67.6 99.6 63.9 99.8 63.9 99.8C63.9 99.8 71.2 104.5 78.8 107.9C70.8 108.2 62.9 109.6 62.9 109.6C62.9 109.6 68.1 112.1 74.3 114.4C73.5 114.4 72.6 114.4 71.7 114.4C59.6 114.4 41.5 120.3 41.5 120.3C41.5 120.3 59.6 126.2 71.7 126.2C72.2 126.2 72.7 126.2 73.2 126.2C63.1 129 51.5 135 51.5 135C51.5 135 61.6 136.5 71.2 136.5C66.9 138.9 63.8 140.9 63.8 140.9C63.8 140.9 72.5 141.4 80.8 140.5C74 144.7 67.9 149.9 67.9 149.9C67.9 149.9 73.7 149.5 80.2 148.3C79.5 148.7 78.7 149.1 77.9 149.6C67.4 155.6 54.7 169.8 54.7 169.8C54.7 169.8 73.3 165.9 83.8 159.8C84.2 159.5 84.7 159.3 85.1 159C77.7 166.5 70.7 177.4 70.7 177.4C70.7 177.4 80.2 173.7 88.5 168.8C86 173 84.3 176.3 84.3 176.3C84.3 176.3 92.1 172.4 98.8 167.5C95.1 174.5 92.3 182.1 92.3 182.1C92.3 182.1 97.1 178.8 102.1 174.6C101.7 175.3 101.2 176 100.8 176.8C94.8 187.2 90.8 205.9 90.8 205.9C90.8 205.9 105 193.2 111 182.7C111.3 182.3 111.5 181.8 111.7 181.4C109 191.6 108.5 204.5 108.5 204.5C108.5 204.5 114.9 196.5 119.6 188.2C119.5 193.1 119.7 196.8 119.7 196.8C119.7 196.8 124.5 189.5 127.9 181.9C128.2 189.9 129.6 197.8 129.6 197.8C129.6 197.8 132.1 192.6 134.4 186.4C134.4 187.2 134.4 188.1 134.4 189C134.4 201.1 140.3 219.2 140.3 219.2C140.3 219.2 146.2 201.1 146.2 189C146.2 188.5 146.2 188 146.2 187.5C149 197.6 155 209.1 155 209.1C155 209.1 156.5 199 156.5 189.4C158.9 193.7 160.9 196.8 160.9 196.8C160.9 196.8 161.4 188.1 160.5 179.8C164.7 186.6 169.9 192.7 169.9 192.7C169.9 192.7 169.5 186.9 168.3 180.4C168.7 181.1 169.1 181.9 169.6 182.7C175.6 193.1 189.8 205.9 189.8 205.9C189.8 205.9 185.9 187.3 179.8 176.8C179.5 176.4 179.3 175.9 179 175.5C186.5 182.9 197.4 189.9 197.4 189.9C197.4 189.9 193.7 180.4 188.8 172.1C193 174.6 196.3 176.3 196.3 176.3C196.3 176.3 192.4 168.5 187.5 161.8C194.5 165.5 202.1 168.3 202.1 168.3C202.1 168.3 198.8 163.5 194.6 158.5C195.3 158.9 196 159.4 196.8 159.9C207.2 165.7 225.8 169.6 225.8 169.6Z" fill="url(#paint0_radial)"/>
<path id="Vector_2" d="M140.3 56.6C175.5 56.6 204 85.1 204 120.2C204 155.3 175.5 183.8 140.3 183.8C105.1 183.8 76.6 155.3 76.6 120.2C76.7 85.1 105.2 56.6 140.3 56.6Z" fill="url(#paint1_linear)"/>
<path id="Vector_3" d="M140.3 63C160.5 63 180 74.3 184.6 91.3C190.4 112.7 171.3 134.7 140.3 134.7C109.3 134.7 90.2 112.7 96 91.3C100.7 74.3 120.1 63 140.3 63Z" fill="url(#paint2_linear)"/>
</g>
</g>
<g id="img/cloud1">
<path id="Vector_4" d="M201.679 206.346C211.04 206.346 219.049 199.963 219.049 191.651C219.049 184.017 212.308 178.01 203.958 177.241C203.963 177.058 203.963 176.88 203.963 176.701V176.673C203.963 167.245 196.352 159.517 186.808 159.517C183.573 159.517 180.489 160.396 177.895 161.962C176.556 152.961 168.891 146.144 159.526 146.144C154.916 146.144 150.66 147.832 147.391 150.656C143.559 139.167 132.661 130.951 119.939 130.951C104.01 130.951 91.1325 143.801 90.9112 159.569C90.5863 159.544 90.2215 159.517 89.8755 159.517C81.085 159.517 74.0039 166.598 74.0039 175.389C74.0039 176.173 74.0581 176.908 74.1668 177.627C66.6058 179.569 60.9512 185.472 60.9512 192.721C60.9512 201.564 69.4904 208.486 79.6045 208.486C87.3782 208.486 94.0632 204.538 96.8934 198.724C102.887 205.725 112.519 210.198 123.363 210.198C132.261 210.198 140.365 207.132 146.284 202.152C151.361 206.071 158.383 208.486 166.266 208.486C175.015 208.486 182.841 205.423 187.916 200.618C191.085 204.135 196.075 206.346 201.679 206.346Z" fill="#D1E1F3" stroke="#6E8ECF" stroke-width="2" stroke-miterlimit="10"/>
<path id="Vector_5" d="M189.59 186.516C182.1 186.944 175.895 182.771 174.718 176.887C170.866 180.417 165.196 182.771 158.884 183.199C149.362 183.734 141.444 179.562 139.305 173.249C134.597 180.845 125.61 186.409 115.339 186.944C109.669 187.265 104.426 186.088 100.146 183.734C98.5416 189.512 92.4432 194.005 85.3819 194.433C77.1437 194.968 70.6174 189.726 70.8313 182.771C70.8313 182.129 70.9383 181.487 71.0453 180.845C70.8313 180.631 70.7244 180.31 70.5104 180.096C72.0082 179.348 73.6131 178.813 75.3249 178.385C75.1109 177.422 75.0039 176.459 75.0039 175.389C75.0039 167.151 81.6373 160.517 89.8755 160.517C90.5174 160.517 91.2663 160.624 91.9083 160.624C91.9083 160.41 91.9083 160.196 91.9083 159.982C91.9083 144.576 104.426 131.951 119.939 131.951C132.778 131.951 143.691 140.617 146.901 152.493C150.111 149.177 154.604 147.144 159.526 147.144C168.941 147.144 176.537 154.419 177.072 163.727C179.747 161.694 183.17 160.517 186.808 160.517C198.802 160.517 204.501 172.916 202.836 177.965C201.718 181.354 198.414 185.978 189.59 186.516Z" fill="white"/>
</g>
</g>
<defs>
<radialGradient id="paint0_radial" cx="0" cy="0" r="1" gradientUnits="userSpaceOnUse" gradientTransform="translate(140.25 120.35) rotate(90) scale(98.85 98.75)">
<stop stop-color="#FFE31A"/>
<stop offset="1" stop-color="#FFC43A"/>
</radialGradient>
<linearGradient id="paint1_linear" x1="140.3" y1="56.6" x2="140.3" y2="183.8" gradientUnits="userSpaceOnUse">
<stop stop-color="#FFA100"/>
<stop offset="1" stop-color="#FFE31A"/>
</linearGradient>
<linearGradient id="paint2_linear" x1="140.3" y1="63" x2="140.3" y2="134.7" gradientUnits="userSpaceOnUse">
<stop stop-color="#FFD300"/>
<stop offset="1" stop-color="#FFC90F"/>
</linearGradient>
</defs>
</svg>
