<svg width="280" height="280" viewBox="0 0 280 280" fill="none" xmlns="http://www.w3.org/2000/svg">
<g id="040">
<g id="img/drops5">
<g id="img/drop1">
<path id="Vector" d="M86.6148 180C84.5148 189.2 80.9148 194.4 82.3148 199.3C83.6148 204.2 88.7148 207.1 93.6148 205.8C98.5148 204.5 101.415 199.4 100.115 194.5C98.7148 189.6 93.5148 186.9 86.6148 180Z" fill="url(#paint0_linear)" stroke="#6B92A8" stroke-width="2" stroke-miterlimit="10"/>
<path id="Vector_2" d="M93.1148 194.5C94.4148 199.3 92.5148 202 89.5148 202.8C88.9148 203 88.3148 203 87.7148 202.9C89.2148 203.7 91.0148 203.9 92.8148 203.5C96.6148 202.5 98.8148 198.6 97.8148 194.9C96.8148 191.1 87.5148 183.7 87.5148 183.7C87.5148 183.7 91.8148 189.7 93.1148 194.5Z" fill="white"/>
</g>
<g id="img/drop1_2">
<path id="Vector_3" d="M135.465 180C133.365 189.2 129.765 194.4 131.165 199.3C132.465 204.2 137.565 207.1 142.465 205.8C147.365 204.5 150.265 199.4 148.965 194.5C147.565 189.6 142.365 186.9 135.465 180Z" fill="url(#paint1_linear)" stroke="#6B92A8" stroke-width="2" stroke-miterlimit="10"/>
<path id="Vector_4" d="M141.965 194.5C143.265 199.3 141.365 202 138.365 202.8C137.765 203 137.165 203 136.565 202.9C138.065 203.7 139.865 203.9 141.665 203.5C145.465 202.5 147.665 198.6 146.665 194.9C145.665 191.1 136.365 183.7 136.365 183.7C136.365 183.7 140.665 189.7 141.965 194.5Z" fill="white"/>
</g>
<g id="img/drop1_3">
<path id="Vector_5" d="M111.04 191.3C108.94 200.5 105.34 205.7 106.74 210.6C108.04 215.5 113.14 218.4 118.04 217.1C122.94 215.8 125.84 210.7 124.54 205.8C123.14 200.9 117.94 198.2 111.04 191.3Z" fill="url(#paint2_linear)" stroke="#6B92A8" stroke-width="2" stroke-miterlimit="10"/>
<path id="Vector_6" d="M117.54 205.8C118.84 210.6 116.94 213.3 113.94 214.1C113.34 214.3 112.74 214.3 112.14 214.2C113.64 215 115.44 215.2 117.24 214.8C121.04 213.8 123.24 209.9 122.24 206.2C121.24 202.4 111.94 195 111.94 195C111.94 195 116.24 201 117.54 205.8Z" fill="white"/>
</g>
<g id="img/drop1_4">
<path id="Vector_7" d="M184.316 180C182.216 189.2 178.616 194.4 180.016 199.3C181.316 204.2 186.416 207.1 191.316 205.8C196.216 204.5 199.116 199.4 197.816 194.5C196.416 189.6 191.216 186.9 184.316 180Z" fill="url(#paint3_linear)" stroke="#6B92A8" stroke-width="2" stroke-miterlimit="10"/>
<path id="Vector_8" d="M190.816 194.5C192.116 199.3 190.216 202 187.216 202.8C186.616 203 186.016 203 185.416 202.9C186.916 203.7 188.716 203.9 190.516 203.5C194.316 202.5 196.516 198.6 195.516 194.9C194.516 191.1 185.216 183.7 185.216 183.7C185.216 183.7 189.516 189.7 190.816 194.5Z" fill="white"/>
</g>
<g id="img/drop1_5">
<path id="Vector_9" d="M159.891 191.3C157.791 200.5 154.191 205.7 155.591 210.6C156.891 215.5 161.991 218.4 166.891 217.1C171.791 215.8 174.691 210.7 173.391 205.8C171.991 200.9 166.791 198.2 159.891 191.3Z" fill="url(#paint4_linear)" stroke="#6B92A8" stroke-width="2" stroke-miterlimit="10"/>
<path id="Vector_10" d="M166.391 205.8C167.691 210.6 165.791 213.3 162.791 214.1C162.191 214.3 161.591 214.3 160.991 214.2C162.491 215 164.291 215.2 166.091 214.8C169.891 213.8 172.091 209.9 171.091 206.2C170.091 202.4 160.791 195 160.791 195C160.791 195 165.091 201 166.391 205.8Z" fill="white"/>
</g>
</g>
<g id="img/clouds2">
<path id="Vector_11" d="M65.8 139.9C65.8 149.411 75.0211 156.9 85.9 156.9C92.4353 156.9 98.2924 154.252 101.973 150.081C107.844 155.662 117.044 159.3 127.3 159.3C136.446 159.3 144.792 156.462 150.581 151.904C157.52 157.744 166.993 161.3 177.4 161.3C190.105 161.3 201.385 155.962 208.318 147.751C211.529 154.566 219.366 159.3 228.5 159.3C240.274 159.3 250.2 151.315 250.2 141C250.2 132.599 243.515 125.676 234.648 123.53C234.787 122.671 234.9 121.741 234.9 120.8C234.9 110.648 226.652 102.4 216.5 102.4C216.056 102.4 215.616 102.428 215.197 102.469C214.968 84.0164 200.008 69.2 181.5 69.2C166.622 69.2 153.944 78.9333 149.519 92.3385C145.729 88.9404 140.674 86.8999 135.2 86.8999C124.452 86.8999 115.406 94.9213 113.967 105.417C110.897 103.498 107.317 102.4 103.5 102.4C92.4443 102.4 83.6 111.351 83.6 122.3V122.327C83.6 122.579 83.6 122.829 83.6091 123.086C73.7298 124.105 65.8 131.115 65.8 139.9Z" fill="#D1E1F3" stroke="#6E8ECF" stroke-width="2" stroke-miterlimit="10"/>
<path id="Vector_12" d="M100 133.9C108.8 134.4 116 129.5 117.4 122.6C121.9 126.7 128.6 129.5 135.9 129.9C147 130.6 156.2 125.6 158.8 118.3C164.2 127.2 174.8 133.6 186.8 134.3C193.5 134.7 199.6 133.3 204.6 130.5C206.5 137.2 213.5 142.5 221.9 143C231.5 143.6 239.1 137.5 238.9 129.3C238.9 128.5 238.8 127.8 238.6 127C238.8 126.7 239 126.4 239.2 126.1C237.5 125.2 235.6 124.5 233.6 124.1C233.8 123 234 121.8 234 120.6C234 111 226.2 103.2 216.6 103.2C215.8 103.2 215 103.3 214.3 103.4C214.3 103.2 214.3 102.9 214.3 102.7C214.3 84.6 199.7 70 181.6 70C166.6 70 153.9 80.2 150.1 94C146.4 90.1 141.1 87.7 135.3 87.7C124.4 87.9 115.4 96.4 114.8 107.2C111.6 104.8 107.7 103.4 103.5 103.4C89.6591 103.4 82.6072 117.896 84.6 123.975C85.9003 127.941 89.7674 133.298 100 133.9Z" fill="white"/>
<path id="Vector_13" d="M194.3 174.4C205.179 174.4 214.4 166.911 214.4 157.4C214.4 148.621 206.571 141.606 196.691 140.586C196.7 140.329 196.7 140.079 196.7 139.827V139.8C196.7 128.851 187.856 119.9 176.8 119.9C172.983 119.9 169.403 120.998 166.333 122.917C164.893 112.419 155.84 104.4 145 104.4C139.526 104.4 134.471 106.44 130.681 109.839C126.256 96.4333 113.578 86.7 98.7 86.7C80.1916 86.7 65.2324 101.516 65.0027 119.969C64.5845 119.928 64.1443 119.9 63.7 119.9C53.5477 119.9 45.3 128.148 45.3 138.3C45.3 139.241 45.4132 140.171 45.5516 141.03C36.6854 143.176 30 150.099 30 158.5C30 168.815 39.9262 176.8 51.7 176.8C60.8343 176.8 68.6709 172.066 71.882 165.251C78.8148 173.462 90.0953 178.8 102.8 178.8C113.207 178.8 122.68 175.244 129.619 169.404C135.408 173.962 143.754 176.8 152.9 176.8C163.156 176.8 172.356 173.162 178.227 167.581C181.908 171.752 187.765 174.4 194.3 174.4Z" fill="#D1E1F3" stroke="#6E8ECF" stroke-width="2" stroke-miterlimit="10"/>
<path id="Vector_14" d="M180.2 151.4C171.4 151.9 164.2 147 162.8 140.1C158.3 144.2 151.6 147 144.3 147.4C133.2 148.1 124 143.1 121.4 135.8C116 144.7 105.4 151.1 93.4 151.8C86.7 152.2 80.6 150.8 75.6 148C73.7 154.7 66.7 160 58.3 160.5C48.7 161.1 41.1 155 41.3 146.8C41.3 146 41.4 145.3 41.6 144.5C41.4 144.2 41.2 143.9 41 143.6C42.7 142.7 44.6 142 46.6 141.6C46.4 140.5 46.2 139.3 46.2 138.1C46.2 128.5 54 120.7 63.6 120.7C64.4 120.7 65.2 120.8 65.9 120.9C65.9 120.7 65.9 120.4 65.9 120.2C65.9 102.1 80.5 87.5 98.6 87.5C113.6 87.5 126.3 97.7 130.1 111.5C133.8 107.6 139.1 105.2 144.9 105.2C155.8 105.2 164.8 113.7 165.4 124.5C168.6 122.1 172.5 120.7 176.7 120.7C190.654 120.7 197.967 135.134 195.418 141.971C193.956 145.892 189.993 150.824 180.2 151.4Z" fill="white"/>
</g>
</g>
<defs>
<linearGradient id="paint0_linear" x1="91.2127" y1="180" x2="91.2127" y2="206.11" gradientUnits="userSpaceOnUse">
<stop stop-color="#1AA1E6"/>
<stop offset="1" stop-color="white"/>
</linearGradient>
<linearGradient id="paint1_linear" x1="140.063" y1="180" x2="140.063" y2="206.11" gradientUnits="userSpaceOnUse">
<stop stop-color="#1AA1E6"/>
<stop offset="1" stop-color="white"/>
</linearGradient>
<linearGradient id="paint2_linear" x1="115.638" y1="191.3" x2="115.638" y2="217.411" gradientUnits="userSpaceOnUse">
<stop stop-color="#1AA1E6"/>
<stop offset="1" stop-color="white"/>
</linearGradient>
<linearGradient id="paint3_linear" x1="188.914" y1="180" x2="188.914" y2="206.11" gradientUnits="userSpaceOnUse">
<stop stop-color="#1AA1E6"/>
<stop offset="1" stop-color="white"/>
</linearGradient>
<linearGradient id="paint4_linear" x1="164.489" y1="191.3" x2="164.489" y2="217.411" gradientUnits="userSpaceOnUse">
<stop stop-color="#1AA1E6"/>
<stop offset="1" stop-color="white"/>
</linearGradient>
</defs>
</svg>
