<svg width="280" height="280" viewBox="0 0 280 280" fill="none" xmlns="http://www.w3.org/2000/svg">
<g id="050">
<g id="img/drops3">
<g id="img/drop1">
<path id="Vector" d="M91.0443 182.105C87.8615 196.084 82.4053 203.985 84.5272 211.43C86.4975 218.875 94.2271 223.281 101.654 221.306C109.08 219.331 113.475 211.582 111.505 204.137C109.383 196.692 101.502 192.589 91.0443 182.105Z" fill="url(#paint0_linear)" stroke="#6B92A8" stroke-width="2" stroke-miterlimit="10"/>
<path id="Vector_2" d="M100.896 204.137C102.866 211.43 99.9865 215.532 95.4396 216.748C94.5303 217.052 93.6209 217.052 92.7115 216.9C94.9849 218.115 97.713 218.419 100.441 217.812C106.201 216.292 109.535 210.366 108.019 204.745C106.504 198.971 92.4084 187.727 92.4084 187.727C92.4084 187.727 98.9255 196.844 100.896 204.137Z" fill="white"/>
</g>
<g id="img/drop1_2">
<path id="Vector_3" d="M174.896 182.105C171.713 196.084 166.257 203.985 168.379 211.43C170.349 218.875 178.079 223.281 185.505 221.306C192.932 219.331 197.327 211.582 195.357 204.137C193.235 196.692 185.354 192.589 174.896 182.105Z" fill="url(#paint1_linear)" stroke="#6B92A8" stroke-width="2" stroke-miterlimit="10"/>
<path id="Vector_4" d="M184.747 204.137C186.718 211.43 183.838 215.532 179.291 216.748C178.382 217.052 177.472 217.052 176.563 216.9C178.836 218.115 181.565 218.419 184.293 217.812C190.052 216.292 193.386 210.366 191.871 204.745C190.355 198.971 176.26 187.727 176.26 187.727C176.26 187.727 182.777 196.844 184.747 204.137Z" fill="white"/>
</g>
<g id="img/drop1_3">
<path id="Vector_5" d="M132.97 199.275C129.787 213.253 124.331 221.154 126.453 228.599C128.423 236.045 136.153 240.451 143.579 238.476C151.006 236.5 155.401 228.751 153.431 221.306C151.309 213.861 143.428 209.759 132.97 199.275Z" fill="url(#paint2_linear)" stroke="#6B92A8" stroke-width="2" stroke-miterlimit="10"/>
<path id="Vector_6" d="M142.822 221.306C144.792 228.599 141.912 232.702 137.365 233.917C136.456 234.221 135.547 234.221 134.637 234.069C136.911 235.285 139.639 235.589 142.367 234.981C148.126 233.462 151.461 227.536 149.945 221.914C148.429 216.14 134.334 204.896 134.334 204.896C134.334 204.896 140.851 214.013 142.822 221.306Z" fill="white"/>
</g>
</g>
<g id="img/clouds2dark">
<path id="Vector_7" d="M65.8 139.9C65.8 149.411 75.0211 156.9 85.9 156.9C92.4353 156.9 98.2924 154.252 101.973 150.081C107.844 155.662 117.044 159.3 127.3 159.3C136.446 159.3 144.792 156.462 150.581 151.904C157.52 157.744 166.993 161.3 177.4 161.3C190.105 161.3 201.385 155.962 208.318 147.751C211.529 154.566 219.366 159.3 228.5 159.3C240.274 159.3 250.2 151.315 250.2 141C250.2 132.599 243.515 125.676 234.648 123.53C234.787 122.671 234.9 121.741 234.9 120.8C234.9 110.648 226.652 102.4 216.5 102.4C216.056 102.4 215.616 102.428 215.197 102.469C214.968 84.0164 200.008 69.2 181.5 69.2C166.622 69.2 153.944 78.9333 149.519 92.3385C145.729 88.9404 140.674 86.8999 135.2 86.8999C124.452 86.8999 115.406 94.9213 113.967 105.417C110.897 103.498 107.317 102.4 103.5 102.4C92.4443 102.4 83.6 111.351 83.6 122.3V122.327C83.6 122.579 83.6 122.829 83.6091 123.086C73.7298 124.105 65.8 131.115 65.8 139.9Z" fill="#D1E1F3" stroke="#6E8ECF" stroke-width="2" stroke-miterlimit="10"/>
<path id="Vector_8" d="M100 133.9C108.8 134.4 116 129.5 117.4 122.6C121.9 126.7 128.6 129.5 135.9 129.9C147 130.6 156.2 125.6 158.8 118.3C164.2 127.2 174.8 133.6 186.8 134.3C193.5 134.7 199.6 133.3 204.6 130.5C206.5 137.2 213.5 142.5 221.9 143C231.5 143.6 239.1 137.5 238.9 129.3C238.9 128.5 238.8 127.8 238.6 127C238.8 126.7 239 126.4 239.2 126.1C237.5 125.2 235.6 124.5 233.6 124.1C233.8 123 234 121.8 234 120.6C234 111 226.2 103.2 216.6 103.2C215.8 103.2 215 103.3 214.3 103.4C214.3 103.2 214.3 102.9 214.3 102.7C214.3 84.6 199.7 70 181.6 70C166.6 70 153.9 80.2 150.1 94C146.4 90.1 141.1 87.7 135.3 87.7C124.4 87.9 115.4 96.4 114.8 107.2C111.6 104.8 107.7 103.4 103.5 103.4C89.6591 103.4 82.6072 117.896 84.6 123.975C85.9003 127.941 89.7674 133.298 100 133.9Z" fill="white"/>
<path id="Vector_9" d="M194.3 174.4C205.179 174.4 214.4 166.911 214.4 157.4C214.4 148.621 206.571 141.606 196.691 140.586C196.7 140.329 196.7 140.079 196.7 139.827V139.8C196.7 128.851 187.856 119.9 176.8 119.9C172.983 119.9 169.403 120.998 166.333 122.917C164.893 112.419 155.84 104.4 145 104.4C139.526 104.4 134.471 106.44 130.681 109.839C126.256 96.4333 113.578 86.7 98.7 86.7C80.1916 86.7 65.2324 101.516 65.0027 119.969C64.5845 119.928 64.1443 119.9 63.7 119.9C53.5477 119.9 45.3 128.148 45.3 138.3C45.3 139.241 45.4132 140.171 45.5516 141.03C36.6854 143.176 30 150.099 30 158.5C30 168.815 39.9262 176.8 51.7 176.8C60.8343 176.8 68.6709 172.066 71.882 165.251C78.8148 173.462 90.0953 178.8 102.8 178.8C113.207 178.8 122.68 175.244 129.619 169.404C135.408 173.962 143.754 176.8 152.9 176.8C163.156 176.8 172.356 173.162 178.227 167.581C181.908 171.752 187.765 174.4 194.3 174.4Z" fill="#80B5D6" stroke="#6E8ECF" stroke-width="2" stroke-miterlimit="10"/>
<path id="Vector_10" d="M180.2 151.4C171.4 151.9 164.2 147 162.8 140.1C158.3 144.2 151.6 147 144.3 147.4C133.2 148.1 124 143.1 121.4 135.8C116 144.7 105.4 151.1 93.4 151.8C86.7 152.2 80.6 150.8 75.6 148C73.7 154.7 66.7 160 58.3 160.5C48.7 161.1 41.1 155 41.3 146.8C41.3 146 41.4 145.3 41.6 144.5C41.4 144.2 41.2 143.9 41 143.6C42.7 142.7 44.6 142 46.6 141.6C46.4 140.5 46.2 139.3 46.2 138.1C46.2 128.5 54 120.7 63.6 120.7C64.4 120.7 65.2 120.8 65.9 120.9C65.9 120.7 65.9 120.4 65.9 120.2C65.9 102.1 80.5 87.5 98.6 87.5C113.6 87.5 126.3 97.7 130.1 111.5C133.8 107.6 139.1 105.2 144.9 105.2C155.8 105.2 164.8 113.7 165.4 124.5C168.6 122.1 172.5 120.7 176.7 120.7C190.654 120.7 197.967 135.134 195.418 141.971C193.956 145.892 189.993 150.824 180.2 151.4Z" fill="#96D3EE"/>
</g>
</g>
<defs>
<linearGradient id="paint0_linear" x1="98.0129" y1="182.105" x2="98.0129" y2="221.778" gradientUnits="userSpaceOnUse">
<stop stop-color="#1AA1E6"/>
<stop offset="1" stop-color="white"/>
</linearGradient>
<linearGradient id="paint1_linear" x1="181.864" y1="182.105" x2="181.864" y2="221.778" gradientUnits="userSpaceOnUse">
<stop stop-color="#1AA1E6"/>
<stop offset="1" stop-color="white"/>
</linearGradient>
<linearGradient id="paint2_linear" x1="139.939" y1="199.275" x2="139.939" y2="238.947" gradientUnits="userSpaceOnUse">
<stop stop-color="#1AA1E6"/>
<stop offset="1" stop-color="white"/>
</linearGradient>
</defs>
</svg>
