<svg width="280" height="280" viewBox="0 0 280 280" fill="none" xmlns="http://www.w3.org/2000/svg">
<g id="051">
<g id="img/drops5big">
<g id="img/drop1">
<path id="Vector" d="M55.0443 182.105C51.8615 196.084 46.4053 203.985 48.5272 211.43C50.4975 218.875 58.2271 223.281 65.6536 221.306C73.0802 219.331 77.4755 211.582 75.5052 204.137C73.3833 196.692 65.5021 192.589 55.0443 182.105Z" fill="url(#paint0_linear)" stroke="#6B92A8" stroke-width="2" stroke-miterlimit="10"/>
<path id="Vector_2" d="M64.8958 204.137C66.8662 211.43 63.9865 215.532 59.4396 216.748C58.5303 217.052 57.6209 217.052 56.7115 216.9C58.9849 218.115 61.713 218.419 64.4412 217.812C70.2005 216.292 73.5349 210.366 72.0192 204.745C70.5036 198.971 56.4084 187.727 56.4084 187.727C56.4084 187.727 62.9255 196.844 64.8958 204.137Z" fill="white"/>
</g>
<g id="img/drop1_2">
<path id="Vector_3" d="M133.994 182.105C130.812 196.084 125.355 203.985 127.477 211.43C129.447 218.875 137.177 223.281 144.604 221.306C152.03 219.331 156.425 211.582 154.455 204.137C152.333 196.692 144.452 192.589 133.994 182.105Z" fill="url(#paint1_linear)" stroke="#6B92A8" stroke-width="2" stroke-miterlimit="10"/>
<path id="Vector_4" d="M143.846 204.137C145.816 211.43 142.936 215.532 138.39 216.748C137.48 217.052 136.571 217.052 135.662 216.9C137.935 218.115 140.663 218.419 143.391 217.812C149.151 216.292 152.485 210.366 150.969 204.745C149.454 198.971 135.358 187.727 135.358 187.727C135.358 187.727 141.876 196.844 143.846 204.137Z" fill="white"/>
</g>
<g id="img/drop1_3">
<path id="Vector_5" d="M94.9943 199.275C91.8115 213.253 86.3553 221.154 88.4772 228.599C90.4475 236.045 98.1771 240.451 105.604 238.476C113.03 236.5 117.425 228.751 115.455 221.306C113.333 213.861 105.452 209.759 94.9943 199.275Z" fill="url(#paint2_linear)" stroke="#6B92A8" stroke-width="2" stroke-miterlimit="10"/>
<path id="Vector_6" d="M104.846 221.306C106.816 228.599 103.936 232.702 99.3896 233.917C98.4803 234.221 97.5709 234.221 96.6615 234.069C98.935 235.285 101.663 235.589 104.391 234.981C110.151 233.462 113.485 227.536 111.969 221.914C110.454 216.14 96.3584 204.896 96.3584 204.896C96.3584 204.896 102.876 214.013 104.846 221.306Z" fill="white"/>
</g>
<g id="img/drop1_4">
<path id="Vector_7" d="M211.994 182.105C208.812 196.084 203.355 203.985 205.477 211.43C207.447 218.875 215.177 223.281 222.604 221.306C230.03 219.331 234.425 211.582 232.455 204.137C230.333 196.692 222.452 192.589 211.994 182.105Z" fill="url(#paint3_linear)" stroke="#6B92A8" stroke-width="2" stroke-miterlimit="10"/>
<path id="Vector_8" d="M221.846 204.137C223.816 211.43 220.936 215.532 216.39 216.748C215.48 217.052 214.571 217.052 213.662 216.9C215.935 218.115 218.663 218.419 221.391 217.812C227.151 216.292 230.485 210.366 228.969 204.745C227.454 198.971 213.358 187.727 213.358 187.727C213.358 187.727 219.876 196.844 221.846 204.137Z" fill="white"/>
</g>
<g id="img/drop1_5">
<path id="Vector_9" d="M172.994 199.275C169.812 213.253 164.355 221.154 166.477 228.599C168.447 236.045 176.177 240.451 183.604 238.476C191.03 236.5 195.425 228.751 193.455 221.306C191.333 213.861 183.452 209.759 172.994 199.275Z" fill="url(#paint4_linear)" stroke="#6B92A8" stroke-width="2" stroke-miterlimit="10"/>
<path id="Vector_10" d="M182.846 221.306C184.816 228.599 181.936 232.702 177.39 233.917C176.48 234.221 175.571 234.221 174.662 234.069C176.935 235.285 179.663 235.589 182.391 234.981C188.151 233.462 191.485 227.536 189.969 221.914C188.454 216.14 174.358 204.896 174.358 204.896C174.358 204.896 180.876 214.013 182.846 221.306Z" fill="white"/>
</g>
</g>
<g id="img/clouds2dark">
<path id="Vector_11" d="M65.8 139.9C65.8 149.411 75.0211 156.9 85.9 156.9C92.4353 156.9 98.2924 154.252 101.973 150.081C107.844 155.662 117.044 159.3 127.3 159.3C136.446 159.3 144.792 156.462 150.581 151.904C157.52 157.744 166.993 161.3 177.4 161.3C190.105 161.3 201.385 155.962 208.318 147.751C211.529 154.566 219.366 159.3 228.5 159.3C240.274 159.3 250.2 151.315 250.2 141C250.2 132.599 243.515 125.676 234.648 123.53C234.787 122.671 234.9 121.741 234.9 120.8C234.9 110.648 226.652 102.4 216.5 102.4C216.056 102.4 215.616 102.428 215.197 102.469C214.968 84.0164 200.008 69.2 181.5 69.2C166.622 69.2 153.944 78.9333 149.519 92.3385C145.729 88.9404 140.674 86.8999 135.2 86.8999C124.452 86.8999 115.406 94.9213 113.967 105.417C110.897 103.498 107.317 102.4 103.5 102.4C92.4443 102.4 83.6 111.351 83.6 122.3V122.327C83.6 122.579 83.6 122.829 83.6091 123.086C73.7298 124.105 65.8 131.115 65.8 139.9Z" fill="#D1E1F3" stroke="#6E8ECF" stroke-width="2" stroke-miterlimit="10"/>
<path id="Vector_12" d="M100 133.9C108.8 134.4 116 129.5 117.4 122.6C121.9 126.7 128.6 129.5 135.9 129.9C147 130.6 156.2 125.6 158.8 118.3C164.2 127.2 174.8 133.6 186.8 134.3C193.5 134.7 199.6 133.3 204.6 130.5C206.5 137.2 213.5 142.5 221.9 143C231.5 143.6 239.1 137.5 238.9 129.3C238.9 128.5 238.8 127.8 238.6 127C238.8 126.7 239 126.4 239.2 126.1C237.5 125.2 235.6 124.5 233.6 124.1C233.8 123 234 121.8 234 120.6C234 111 226.2 103.2 216.6 103.2C215.8 103.2 215 103.3 214.3 103.4C214.3 103.2 214.3 102.9 214.3 102.7C214.3 84.6 199.7 70 181.6 70C166.6 70 153.9 80.2 150.1 94C146.4 90.1 141.1 87.7 135.3 87.7C124.4 87.9 115.4 96.4 114.8 107.2C111.6 104.8 107.7 103.4 103.5 103.4C89.6591 103.4 82.6072 117.896 84.6 123.975C85.9003 127.941 89.7674 133.298 100 133.9Z" fill="white"/>
<path id="Vector_13" d="M194.3 174.4C205.179 174.4 214.4 166.911 214.4 157.4C214.4 148.621 206.571 141.606 196.691 140.586C196.7 140.329 196.7 140.079 196.7 139.827V139.8C196.7 128.851 187.856 119.9 176.8 119.9C172.983 119.9 169.403 120.998 166.333 122.917C164.893 112.419 155.84 104.4 145 104.4C139.526 104.4 134.471 106.44 130.681 109.839C126.256 96.4333 113.578 86.7 98.7 86.7C80.1916 86.7 65.2324 101.516 65.0027 119.969C64.5845 119.928 64.1443 119.9 63.7 119.9C53.5477 119.9 45.3 128.148 45.3 138.3C45.3 139.241 45.4132 140.171 45.5516 141.03C36.6854 143.176 30 150.099 30 158.5C30 168.815 39.9262 176.8 51.7 176.8C60.8343 176.8 68.6709 172.066 71.882 165.251C78.8148 173.462 90.0953 178.8 102.8 178.8C113.207 178.8 122.68 175.244 129.619 169.404C135.408 173.962 143.754 176.8 152.9 176.8C163.156 176.8 172.356 173.162 178.227 167.581C181.908 171.752 187.765 174.4 194.3 174.4Z" fill="#80B5D6" stroke="#6E8ECF" stroke-width="2" stroke-miterlimit="10"/>
<path id="Vector_14" d="M180.2 151.4C171.4 151.9 164.2 147 162.8 140.1C158.3 144.2 151.6 147 144.3 147.4C133.2 148.1 124 143.1 121.4 135.8C116 144.7 105.4 151.1 93.4 151.8C86.7 152.2 80.6 150.8 75.6 148C73.7 154.7 66.7 160 58.3 160.5C48.7 161.1 41.1 155 41.3 146.8C41.3 146 41.4 145.3 41.6 144.5C41.4 144.2 41.2 143.9 41 143.6C42.7 142.7 44.6 142 46.6 141.6C46.4 140.5 46.2 139.3 46.2 138.1C46.2 128.5 54 120.7 63.6 120.7C64.4 120.7 65.2 120.8 65.9 120.9C65.9 120.7 65.9 120.4 65.9 120.2C65.9 102.1 80.5 87.5 98.6 87.5C113.6 87.5 126.3 97.7 130.1 111.5C133.8 107.6 139.1 105.2 144.9 105.2C155.8 105.2 164.8 113.7 165.4 124.5C168.6 122.1 172.5 120.7 176.7 120.7C190.654 120.7 197.967 135.134 195.418 141.971C193.956 145.892 189.993 150.824 180.2 151.4Z" fill="#96D3EE"/>
</g>
</g>
<defs>
<linearGradient id="paint0_linear" x1="62.0129" y1="182.105" x2="62.0129" y2="221.778" gradientUnits="userSpaceOnUse">
<stop stop-color="#1AA1E6"/>
<stop offset="1" stop-color="white"/>
</linearGradient>
<linearGradient id="paint1_linear" x1="140.963" y1="182.105" x2="140.963" y2="221.778" gradientUnits="userSpaceOnUse">
<stop stop-color="#1AA1E6"/>
<stop offset="1" stop-color="white"/>
</linearGradient>
<linearGradient id="paint2_linear" x1="101.963" y1="199.275" x2="101.963" y2="238.947" gradientUnits="userSpaceOnUse">
<stop stop-color="#1AA1E6"/>
<stop offset="1" stop-color="white"/>
</linearGradient>
<linearGradient id="paint3_linear" x1="218.963" y1="182.105" x2="218.963" y2="221.778" gradientUnits="userSpaceOnUse">
<stop stop-color="#1AA1E6"/>
<stop offset="1" stop-color="white"/>
</linearGradient>
<linearGradient id="paint4_linear" x1="179.963" y1="199.275" x2="179.963" y2="238.947" gradientUnits="userSpaceOnUse">
<stop stop-color="#1AA1E6"/>
<stop offset="1" stop-color="white"/>
</linearGradient>
</defs>
</svg>
