<svg width="280" height="280" viewBox="0 0 280 280" fill="none" xmlns="http://www.w3.org/2000/svg">
<g id="055">
<g id="img/snows5big">
<g id="img/snow1">
<g id="Group">
<path id="Vector" d="M61.7168 182.204V218.006" stroke="#49B5EB" stroke-width="2" stroke-miterlimit="10" stroke-linecap="round" stroke-linejoin="round"/>
<path id="Vector_2" d="M57.2722 186.772L61.7167 188.994L66.1611 186.772" stroke="#49B5EB" stroke-width="2" stroke-miterlimit="10" stroke-linecap="round" stroke-linejoin="round"/>
<path id="Vector_3" d="M56.1611 213.439L61.7167 211.216L67.2722 213.439" stroke="#49B5EB" stroke-width="2" stroke-miterlimit="10" stroke-linecap="round" stroke-linejoin="round"/>
<path id="Vector_4" d="M77.2197 191.155L46.2139 209.056" stroke="#49B5EB" stroke-width="2" stroke-miterlimit="10" stroke-linecap="round" stroke-linejoin="round"/>
<path id="Vector_5" d="M77.6365 209.296L46.6306 191.395" stroke="#49B5EB" stroke-width="2" stroke-miterlimit="10" stroke-linecap="round" stroke-linejoin="round"/>
<path id="Vector_6" d="M71.0415 189.589L71.3392 194.55L75.4859 197.287" stroke="#49B5EB" stroke-width="2" stroke-miterlimit="10" stroke-linecap="round" stroke-linejoin="round"/>
<path id="Vector_7" d="M75.9026 203.163L71.7559 205.901L71.4581 210.861" stroke="#49B5EB" stroke-width="2" stroke-miterlimit="10" stroke-linecap="round" stroke-linejoin="round"/>
<path id="Vector_8" d="M47.3919 201.961L52.0942 205.661L52.9475 211.583" stroke="#49B5EB" stroke-width="2" stroke-miterlimit="10" stroke-linecap="round" stroke-linejoin="round"/>
<path id="Vector_9" d="M53.3643 188.868L52.511 194.79L47.8088 198.49" stroke="#49B5EB" stroke-width="2" stroke-miterlimit="10" stroke-linecap="round" stroke-linejoin="round"/>
</g>
</g>
<g id="img/snow1_2">
<g id="Group_2">
<path id="Vector_10" d="M140.667 182.204V218.006" stroke="#49B5EB" stroke-width="2" stroke-miterlimit="10" stroke-linecap="round" stroke-linejoin="round"/>
<path id="Vector_11" d="M136.222 186.772L140.667 188.994L145.111 186.772" stroke="#49B5EB" stroke-width="2" stroke-miterlimit="10" stroke-linecap="round" stroke-linejoin="round"/>
<path id="Vector_12" d="M135.111 213.439L140.667 211.216L146.222 213.439" stroke="#49B5EB" stroke-width="2" stroke-miterlimit="10" stroke-linecap="round" stroke-linejoin="round"/>
<path id="Vector_13" d="M156.17 191.155L125.164 209.056" stroke="#49B5EB" stroke-width="2" stroke-miterlimit="10" stroke-linecap="round" stroke-linejoin="round"/>
<path id="Vector_14" d="M156.586 209.296L125.581 191.395" stroke="#49B5EB" stroke-width="2" stroke-miterlimit="10" stroke-linecap="round" stroke-linejoin="round"/>
<path id="Vector_15" d="M149.991 189.589L150.289 194.55L154.436 197.287" stroke="#49B5EB" stroke-width="2" stroke-miterlimit="10" stroke-linecap="round" stroke-linejoin="round"/>
<path id="Vector_16" d="M154.853 203.163L150.706 205.901L150.408 210.861" stroke="#49B5EB" stroke-width="2" stroke-miterlimit="10" stroke-linecap="round" stroke-linejoin="round"/>
<path id="Vector_17" d="M126.342 201.961L131.044 205.661L131.897 211.583" stroke="#49B5EB" stroke-width="2" stroke-miterlimit="10" stroke-linecap="round" stroke-linejoin="round"/>
<path id="Vector_18" d="M132.314 188.868L131.461 194.79L126.759 198.49" stroke="#49B5EB" stroke-width="2" stroke-miterlimit="10" stroke-linecap="round" stroke-linejoin="round"/>
</g>
</g>
<g id="img/snow1_3">
<g id="Group_3">
<path id="Vector_19" d="M101.667 199.373V235.176" stroke="#49B5EB" stroke-width="2" stroke-miterlimit="10" stroke-linecap="round" stroke-linejoin="round"/>
<path id="Vector_20" d="M97.2222 203.941L101.667 206.164L106.111 203.941" stroke="#49B5EB" stroke-width="2" stroke-miterlimit="10" stroke-linecap="round" stroke-linejoin="round"/>
<path id="Vector_21" d="M96.1111 230.608L101.667 228.386L107.222 230.608" stroke="#49B5EB" stroke-width="2" stroke-miterlimit="10" stroke-linecap="round" stroke-linejoin="round"/>
<path id="Vector_22" d="M117.17 208.324L86.1638 226.225" stroke="#49B5EB" stroke-width="2" stroke-miterlimit="10" stroke-linecap="round" stroke-linejoin="round"/>
<path id="Vector_23" d="M117.586 226.466L86.5806 208.565" stroke="#49B5EB" stroke-width="2" stroke-miterlimit="10" stroke-linecap="round" stroke-linejoin="round"/>
<path id="Vector_24" d="M110.991 206.759L111.289 211.719L115.436 214.457" stroke="#49B5EB" stroke-width="2" stroke-miterlimit="10" stroke-linecap="round" stroke-linejoin="round"/>
<path id="Vector_25" d="M115.853 220.333L111.706 223.071L111.408 228.031" stroke="#49B5EB" stroke-width="2" stroke-miterlimit="10" stroke-linecap="round" stroke-linejoin="round"/>
<path id="Vector_26" d="M87.3419 219.13L92.0441 222.83L92.8974 228.753" stroke="#49B5EB" stroke-width="2" stroke-miterlimit="10" stroke-linecap="round" stroke-linejoin="round"/>
<path id="Vector_27" d="M93.3143 206.037L92.461 211.96L87.7587 215.66" stroke="#49B5EB" stroke-width="2" stroke-miterlimit="10" stroke-linecap="round" stroke-linejoin="round"/>
</g>
</g>
<g id="img/snow1_4">
<g id="Group_4">
<path id="Vector_28" d="M218.667 182.204V218.006" stroke="#49B5EB" stroke-width="2" stroke-miterlimit="10" stroke-linecap="round" stroke-linejoin="round"/>
<path id="Vector_29" d="M214.222 186.772L218.667 188.994L223.111 186.772" stroke="#49B5EB" stroke-width="2" stroke-miterlimit="10" stroke-linecap="round" stroke-linejoin="round"/>
<path id="Vector_30" d="M213.111 213.439L218.667 211.216L224.222 213.439" stroke="#49B5EB" stroke-width="2" stroke-miterlimit="10" stroke-linecap="round" stroke-linejoin="round"/>
<path id="Vector_31" d="M234.17 191.155L203.164 209.056" stroke="#49B5EB" stroke-width="2" stroke-miterlimit="10" stroke-linecap="round" stroke-linejoin="round"/>
<path id="Vector_32" d="M234.586 209.296L203.581 191.395" stroke="#49B5EB" stroke-width="2" stroke-miterlimit="10" stroke-linecap="round" stroke-linejoin="round"/>
<path id="Vector_33" d="M227.991 189.589L228.289 194.55L232.436 197.287" stroke="#49B5EB" stroke-width="2" stroke-miterlimit="10" stroke-linecap="round" stroke-linejoin="round"/>
<path id="Vector_34" d="M232.853 203.163L228.706 205.901L228.408 210.861" stroke="#49B5EB" stroke-width="2" stroke-miterlimit="10" stroke-linecap="round" stroke-linejoin="round"/>
<path id="Vector_35" d="M204.342 201.961L209.044 205.661L209.897 211.583" stroke="#49B5EB" stroke-width="2" stroke-miterlimit="10" stroke-linecap="round" stroke-linejoin="round"/>
<path id="Vector_36" d="M210.314 188.868L209.461 194.79L204.759 198.49" stroke="#49B5EB" stroke-width="2" stroke-miterlimit="10" stroke-linecap="round" stroke-linejoin="round"/>
</g>
</g>
<g id="img/snow1_5">
<g id="Group_5">
<path id="Vector_37" d="M179.667 199.373V235.176" stroke="#49B5EB" stroke-width="2" stroke-miterlimit="10" stroke-linecap="round" stroke-linejoin="round"/>
<path id="Vector_38" d="M175.222 203.941L179.667 206.164L184.111 203.941" stroke="#49B5EB" stroke-width="2" stroke-miterlimit="10" stroke-linecap="round" stroke-linejoin="round"/>
<path id="Vector_39" d="M174.111 230.608L179.667 228.386L185.222 230.608" stroke="#49B5EB" stroke-width="2" stroke-miterlimit="10" stroke-linecap="round" stroke-linejoin="round"/>
<path id="Vector_40" d="M195.17 208.324L164.164 226.225" stroke="#49B5EB" stroke-width="2" stroke-miterlimit="10" stroke-linecap="round" stroke-linejoin="round"/>
<path id="Vector_41" d="M195.586 226.466L164.581 208.565" stroke="#49B5EB" stroke-width="2" stroke-miterlimit="10" stroke-linecap="round" stroke-linejoin="round"/>
<path id="Vector_42" d="M188.991 206.759L189.289 211.719L193.436 214.457" stroke="#49B5EB" stroke-width="2" stroke-miterlimit="10" stroke-linecap="round" stroke-linejoin="round"/>
<path id="Vector_43" d="M193.853 220.333L189.706 223.071L189.408 228.031" stroke="#49B5EB" stroke-width="2" stroke-miterlimit="10" stroke-linecap="round" stroke-linejoin="round"/>
<path id="Vector_44" d="M165.342 219.13L170.044 222.83L170.897 228.753" stroke="#49B5EB" stroke-width="2" stroke-miterlimit="10" stroke-linecap="round" stroke-linejoin="round"/>
<path id="Vector_45" d="M171.314 206.037L170.461 211.96L165.759 215.66" stroke="#49B5EB" stroke-width="2" stroke-miterlimit="10" stroke-linecap="round" stroke-linejoin="round"/>
</g>
</g>
</g>
<g id="img/clouds2dark">
<path id="Vector_46" d="M65.8 139.9C65.8 149.411 75.0211 156.9 85.9 156.9C92.4354 156.9 98.2924 154.252 101.973 150.081C107.844 155.662 117.044 159.3 127.3 159.3C136.446 159.3 144.792 156.462 150.581 151.904C157.52 157.744 166.993 161.3 177.4 161.3C190.105 161.3 201.385 155.962 208.318 147.751C211.529 154.566 219.366 159.3 228.5 159.3C240.274 159.3 250.2 151.315 250.2 141C250.2 132.599 243.515 125.676 234.648 123.53C234.787 122.671 234.9 121.741 234.9 120.8C234.9 110.648 226.652 102.4 216.5 102.4C216.056 102.4 215.616 102.428 215.197 102.469C214.968 84.0164 200.008 69.2 181.5 69.2C166.622 69.2 153.944 78.9333 149.519 92.3385C145.729 88.9404 140.674 86.8999 135.2 86.8999C124.452 86.8999 115.406 94.9213 113.968 105.417C110.897 103.498 107.317 102.4 103.5 102.4C92.4443 102.4 83.6 111.351 83.6 122.3V122.327C83.6 122.579 83.6 122.829 83.6091 123.086C73.7299 124.105 65.8 131.115 65.8 139.9Z" fill="#D1E1F3" stroke="#6E8ECF" stroke-width="2" stroke-miterlimit="10"/>
<path id="Vector_47" d="M99.9999 133.9C108.8 134.4 116 129.5 117.4 122.6C121.9 126.7 128.6 129.5 135.9 129.9C147 130.6 156.2 125.6 158.8 118.3C164.2 127.2 174.8 133.6 186.8 134.3C193.5 134.7 199.6 133.3 204.6 130.5C206.5 137.2 213.5 142.5 221.9 143C231.5 143.6 239.1 137.5 238.9 129.3C238.9 128.5 238.8 127.8 238.6 127C238.8 126.7 239 126.4 239.2 126.1C237.5 125.2 235.6 124.5 233.6 124.1C233.8 123 234 121.8 234 120.6C234 111 226.2 103.2 216.6 103.2C215.8 103.2 215 103.3 214.3 103.4C214.3 103.2 214.3 102.9 214.3 102.7C214.3 84.6 199.7 70 181.6 70C166.6 70 153.9 80.2 150.1 94C146.4 90.1 141.1 87.7 135.3 87.7C124.4 87.9 115.4 96.4 114.8 107.2C111.6 104.8 107.7 103.4 103.5 103.4C89.6591 103.4 82.6072 117.896 84.6 123.975C85.9003 127.941 89.7674 133.298 99.9999 133.9Z" fill="white"/>
<path id="Vector_48" d="M194.3 174.4C205.179 174.4 214.4 166.911 214.4 157.4C214.4 148.621 206.571 141.606 196.691 140.586C196.7 140.329 196.7 140.079 196.7 139.827V139.8C196.7 128.851 187.856 119.9 176.8 119.9C172.983 119.9 169.403 120.998 166.333 122.917C164.893 112.419 155.84 104.4 145 104.4C139.526 104.4 134.471 106.44 130.681 109.839C126.256 96.4333 113.578 86.7 98.7 86.7C80.1916 86.7 65.2324 101.516 65.0027 119.969C64.5845 119.928 64.1443 119.9 63.7 119.9C53.5477 119.9 45.3 128.148 45.3 138.3C45.3 139.241 45.4132 140.171 45.5516 141.03C36.6854 143.176 30 150.099 30 158.5C30 168.815 39.9262 176.8 51.7 176.8C60.8343 176.8 68.6709 172.066 71.882 165.251C78.8148 173.462 90.0953 178.8 102.8 178.8C113.207 178.8 122.68 175.244 129.619 169.404C135.408 173.962 143.754 176.8 152.9 176.8C163.156 176.8 172.356 173.162 178.227 167.581C181.908 171.752 187.765 174.4 194.3 174.4Z" fill="#80B5D6" stroke="#6E8ECF" stroke-width="2" stroke-miterlimit="10"/>
<path id="Vector_49" d="M180.2 151.4C171.4 151.9 164.2 147 162.8 140.1C158.3 144.2 151.6 147 144.3 147.4C133.2 148.1 124 143.1 121.4 135.8C116 144.7 105.4 151.1 93.4 151.8C86.7 152.2 80.6 150.8 75.6 148C73.7 154.7 66.7 160 58.3 160.5C48.7 161.1 41.1 155 41.3 146.8C41.3 146 41.4 145.3 41.6 144.5C41.4 144.2 41.2 143.9 41 143.6C42.7 142.7 44.6 142 46.6 141.6C46.4 140.5 46.2 139.3 46.2 138.1C46.2 128.5 54 120.7 63.6 120.7C64.4 120.7 65.2 120.8 65.9 120.9C65.9 120.7 65.9 120.4 65.9 120.2C65.9 102.1 80.5 87.5 98.6 87.5C113.6 87.5 126.3 97.7 130.1 111.5C133.8 107.6 139.1 105.2 144.9 105.2C155.8 105.2 164.8 113.7 165.4 124.5C168.6 122.1 172.5 120.7 176.7 120.7C190.654 120.7 197.967 135.134 195.418 141.971C193.956 145.892 189.993 150.824 180.2 151.4Z" fill="#96D3EE"/>
</g>
</g>
</svg>
