<svg width="280" height="280" viewBox="0 0 280 280" fill="none" xmlns="http://www.w3.org/2000/svg">
<g id="052">
<g id="img/clouds2dark">
<path id="Vector" d="M65.8 139.9C65.8 149.411 75.0211 156.9 85.9 156.9C92.4354 156.9 98.2924 154.252 101.973 150.081C107.844 155.662 117.044 159.3 127.3 159.3C136.446 159.3 144.792 156.462 150.581 151.904C157.52 157.744 166.993 161.3 177.4 161.3C190.105 161.3 201.385 155.962 208.318 147.751C211.529 154.566 219.366 159.3 228.5 159.3C240.274 159.3 250.2 151.315 250.2 141C250.2 132.599 243.515 125.676 234.648 123.53C234.787 122.671 234.9 121.741 234.9 120.8C234.9 110.648 226.652 102.4 216.5 102.4C216.056 102.4 215.616 102.428 215.197 102.469C214.968 84.0164 200.008 69.2 181.5 69.2C166.622 69.2 153.944 78.9333 149.519 92.3385C145.729 88.9404 140.674 86.8999 135.2 86.8999C124.452 86.8999 115.406 94.9213 113.968 105.417C110.897 103.498 107.317 102.4 103.5 102.4C92.4443 102.4 83.6 111.351 83.6 122.3V122.327C83.6 122.579 83.6 122.829 83.6091 123.086C73.7299 124.105 65.8 131.115 65.8 139.9Z" fill="#D1E1F3" stroke="#6E8ECF" stroke-width="2" stroke-miterlimit="10"/>
<path id="Vector_2" d="M99.9999 133.9C108.8 134.4 116 129.5 117.4 122.6C121.9 126.7 128.6 129.5 135.9 129.9C147 130.6 156.2 125.6 158.8 118.3C164.2 127.2 174.8 133.6 186.8 134.3C193.5 134.7 199.6 133.3 204.6 130.5C206.5 137.2 213.5 142.5 221.9 143C231.5 143.6 239.1 137.5 238.9 129.3C238.9 128.5 238.8 127.8 238.6 127C238.8 126.7 239 126.4 239.2 126.1C237.5 125.2 235.6 124.5 233.6 124.1C233.8 123 234 121.8 234 120.6C234 111 226.2 103.2 216.6 103.2C215.8 103.2 215 103.3 214.3 103.4C214.3 103.2 214.3 102.9 214.3 102.7C214.3 84.6 199.7 70 181.6 70C166.6 70 153.9 80.2 150.1 94C146.4 90.1 141.1 87.7 135.3 87.7C124.4 87.9 115.4 96.4 114.8 107.2C111.6 104.8 107.7 103.4 103.5 103.4C89.6591 103.4 82.6072 117.896 84.6 123.975C85.9003 127.941 89.7674 133.298 99.9999 133.9Z" fill="white"/>
<path id="Vector_3" d="M194.3 174.4C205.179 174.4 214.4 166.911 214.4 157.4C214.4 148.621 206.571 141.606 196.691 140.586C196.7 140.329 196.7 140.079 196.7 139.827V139.8C196.7 128.851 187.856 119.9 176.8 119.9C172.983 119.9 169.403 120.998 166.333 122.917C164.893 112.419 155.84 104.4 145 104.4C139.526 104.4 134.471 106.44 130.681 109.839C126.256 96.4333 113.578 86.7 98.7 86.7C80.1916 86.7 65.2324 101.516 65.0027 119.969C64.5845 119.928 64.1443 119.9 63.7 119.9C53.5477 119.9 45.3 128.148 45.3 138.3C45.3 139.241 45.4132 140.171 45.5516 141.03C36.6854 143.176 30 150.099 30 158.5C30 168.815 39.9262 176.8 51.7 176.8C60.8343 176.8 68.6709 172.066 71.882 165.251C78.8148 173.462 90.0953 178.8 102.8 178.8C113.207 178.8 122.68 175.244 129.619 169.404C135.408 173.962 143.754 176.8 152.9 176.8C163.156 176.8 172.356 173.162 178.227 167.581C181.908 171.752 187.765 174.4 194.3 174.4Z" fill="#80B5D6" stroke="#6E8ECF" stroke-width="2" stroke-miterlimit="10"/>
<path id="Vector_4" d="M180.2 151.4C171.4 151.9 164.2 147 162.8 140.1C158.3 144.2 151.6 147 144.3 147.4C133.2 148.1 124 143.1 121.4 135.8C116 144.7 105.4 151.1 93.4 151.8C86.7 152.2 80.6 150.8 75.6 148C73.7 154.7 66.7 160 58.3 160.5C48.7 161.1 41.1 155 41.3 146.8C41.3 146 41.4 145.3 41.6 144.5C41.4 144.2 41.2 143.9 41 143.6C42.7 142.7 44.6 142 46.6 141.6C46.4 140.5 46.2 139.3 46.2 138.1C46.2 128.5 54 120.7 63.6 120.7C64.4 120.7 65.2 120.8 65.9 120.9C65.9 120.7 65.9 120.4 65.9 120.2C65.9 102.1 80.5 87.5 98.6 87.5C113.6 87.5 126.3 97.7 130.1 111.5C133.8 107.6 139.1 105.2 144.9 105.2C155.8 105.2 164.8 113.7 165.4 124.5C168.6 122.1 172.5 120.7 176.7 120.7C190.654 120.7 197.967 135.134 195.418 141.971C193.956 145.892 189.993 150.824 180.2 151.4Z" fill="#96D3EE"/>
</g>
<g id="img/drops5flash">
<g id="img/drop1">
<path id="Vector_5" d="M55.0444 178.805C51.8616 192.784 46.4054 200.685 48.5272 208.13C50.4975 215.575 58.2272 219.981 65.6537 218.006C73.0802 216.031 77.4755 208.282 75.5052 200.837C73.3834 193.392 65.5021 189.289 55.0444 178.805Z" fill="url(#paint0_linear)" stroke="#6B92A8" stroke-width="2" stroke-miterlimit="10"/>
<path id="Vector_6" d="M64.8959 200.837C66.8662 208.13 63.9865 212.232 59.4397 213.448C58.5303 213.752 57.6209 213.752 56.7116 213.6C58.985 214.815 61.7131 215.119 64.4412 214.512C70.2006 212.992 73.5349 207.066 72.0193 201.445C70.5037 195.671 56.4084 184.427 56.4084 184.427C56.4084 184.427 62.9256 193.544 64.8959 200.837Z" fill="white"/>
</g>
<g id="img/drop1_2">
<path id="Vector_7" d="M94.9943 195.975C91.8115 209.953 86.3553 217.854 88.4772 225.299C90.4475 232.745 98.1771 237.151 105.604 235.176C113.03 233.2 117.425 225.451 115.455 218.006C113.333 210.561 105.452 206.459 94.9943 195.975Z" fill="url(#paint1_linear)" stroke="#6B92A8" stroke-width="2" stroke-miterlimit="10"/>
<path id="Vector_8" d="M104.846 218.006C106.816 225.299 103.936 229.402 99.3896 230.617C98.4803 230.921 97.5709 230.921 96.6615 230.769C98.935 231.985 101.663 232.289 104.391 231.681C110.151 230.162 113.485 224.236 111.969 218.614C110.454 212.84 96.3584 201.597 96.3584 201.597C96.3584 201.597 102.876 210.713 104.846 218.006Z" fill="white"/>
</g>
<g id="flash">
<path fill-rule="evenodd" clip-rule="evenodd" d="M139.361 189.66L119 192.1L147.9 142.1L171.6 142L149.284 176.305L168.7 173.3L123.7 236.8L139.361 189.66Z" fill="url(#paint2_linear)"/>
<path d="M139.361 189.66L140.31 189.976L140.806 188.48L139.242 188.668L139.361 189.66ZM119 192.1L118.134 191.6L117.134 193.331L119.119 193.093L119 192.1ZM147.9 142.1L147.896 141.1L147.322 141.102L147.034 141.6L147.9 142.1ZM171.6 142L172.438 142.545L173.449 140.992L171.596 141L171.6 142ZM149.284 176.305L148.446 175.76L147.225 177.635L149.437 177.293L149.284 176.305ZM168.7 173.3L169.516 173.878L170.882 171.95L168.547 172.312L168.7 173.3ZM123.7 236.8L122.751 236.485L120.635 242.855L124.516 237.378L123.7 236.8ZM139.242 188.668L118.881 191.107L119.119 193.093L139.479 190.653L139.242 188.668ZM119.866 192.6L148.766 142.6L147.034 141.6L118.134 191.6L119.866 192.6ZM147.904 143.1L171.604 143L171.596 141L147.896 141.1L147.904 143.1ZM170.762 141.455L148.446 175.76L150.122 176.85L172.438 142.545L170.762 141.455ZM149.437 177.293L168.853 174.288L168.547 172.312L149.131 175.317L149.437 177.293ZM167.884 172.722L122.884 236.222L124.516 237.378L169.516 173.878L167.884 172.722ZM124.649 237.115L140.31 189.976L138.412 189.345L122.751 236.485L124.649 237.115Z" fill="#E08800"/>
</g>
<g id="img/drop1_3">
<path id="Vector_9" d="M211.994 178.805C208.812 192.784 203.355 200.685 205.477 208.13C207.447 215.575 215.177 219.981 222.604 218.006C230.03 216.031 234.425 208.282 232.455 200.837C230.333 193.392 222.452 189.289 211.994 178.805Z" fill="url(#paint3_linear)" stroke="#6B92A8" stroke-width="2" stroke-miterlimit="10"/>
<path id="Vector_10" d="M221.846 200.837C223.816 208.13 220.936 212.232 216.39 213.448C215.48 213.752 214.571 213.752 213.662 213.6C215.935 214.815 218.663 215.119 221.391 214.512C227.151 212.992 230.485 207.066 228.969 201.445C227.454 195.671 213.358 184.427 213.358 184.427C213.358 184.427 219.876 193.544 221.846 200.837Z" fill="white"/>
</g>
<g id="img/drop1_4">
<path id="Vector_11" d="M172.994 195.975C169.812 209.953 164.355 217.854 166.477 225.299C168.447 232.745 176.177 237.151 183.604 235.176C191.03 233.2 195.425 225.451 193.455 218.006C191.333 210.561 183.452 206.459 172.994 195.975Z" fill="url(#paint4_linear)" stroke="#6B92A8" stroke-width="2" stroke-miterlimit="10"/>
<path id="Vector_12" d="M182.846 218.006C184.816 225.299 181.936 229.402 177.39 230.617C176.48 230.921 175.571 230.921 174.662 230.769C176.935 231.985 179.663 232.289 182.391 231.681C188.151 230.162 191.485 224.236 189.969 218.614C188.454 212.84 174.358 201.597 174.358 201.597C174.358 201.597 180.876 210.713 182.846 218.006Z" fill="white"/>
</g>
</g>
</g>
<defs>
<linearGradient id="paint0_linear" x1="62.0129" y1="178.805" x2="62.0129" y2="218.478" gradientUnits="userSpaceOnUse">
<stop stop-color="#1AA1E6"/>
<stop offset="1" stop-color="white"/>
</linearGradient>
<linearGradient id="paint1_linear" x1="101.963" y1="195.975" x2="101.963" y2="235.647" gradientUnits="userSpaceOnUse">
<stop stop-color="#1AA1E6"/>
<stop offset="1" stop-color="white"/>
</linearGradient>
<linearGradient id="paint2_linear" x1="145.3" y1="142" x2="145.3" y2="236.8" gradientUnits="userSpaceOnUse">
<stop stop-color="#FFFD1A"/>
<stop offset="1" stop-color="#F38501"/>
</linearGradient>
<linearGradient id="paint3_linear" x1="218.963" y1="178.805" x2="218.963" y2="218.478" gradientUnits="userSpaceOnUse">
<stop stop-color="#1AA1E6"/>
<stop offset="1" stop-color="white"/>
</linearGradient>
<linearGradient id="paint4_linear" x1="179.963" y1="195.975" x2="179.963" y2="235.647" gradientUnits="userSpaceOnUse">
<stop stop-color="#1AA1E6"/>
<stop offset="1" stop-color="white"/>
</linearGradient>
</defs>
</svg>
