<svg width="280" height="280" viewBox="0 0 280 280" fill="none" xmlns="http://www.w3.org/2000/svg">
<g id="002">
<g id="img/moon">
<path id="Vector" d="M140 40C195.224 40 240 84.7761 240 140C240 195.224 195.224 240 140 240C84.7761 240 40 195.224 40 140C40 84.7761 84.7761 40 140 40Z" fill="url(#paint0_radial)"/>
<path id="Vector_2" d="M90.9453 89.4528L96.4179 85.3732L92.3383 90.8458C92.0398 90.2488 91.5423 89.7513 90.9453 89.4528ZM87.9602 88.9552L88.9552 82.2886L89.9502 88.9552C89.6517 88.8557 89.2537 88.8557 88.9552 88.8557C88.5572 88.8557 88.2587 88.9552 87.9602 88.9552ZM85.5721 90.8458L81.4925 85.3732L86.9652 89.4528C86.3682 89.7513 85.8706 90.2488 85.5721 90.8458ZM84.9751 92.8358C84.9751 93.1343 84.9751 93.5324 85.0746 93.8309L78.408 92.8358L85.0746 91.8408C85.0746 92.1393 84.9751 92.4378 84.9751 92.8358ZM86.9652 96.2189L81.4925 100.199L85.5721 94.7264C85.8706 95.3234 86.3682 95.8209 86.9652 96.2189ZM89.9502 96.6169L88.9552 103.284L87.9602 96.6169C88.2587 96.7164 88.6567 96.7164 88.9552 96.7164C89.2537 96.7164 89.6517 96.7164 89.9502 96.6169ZM88.9552 96.0199C87.1642 96.0199 85.6716 94.5274 85.6716 92.8358C85.6716 91.0448 87.1642 89.6518 88.9552 89.6518C90.7463 89.6518 92.2388 91.1443 92.2388 92.8358C92.1393 94.6269 90.7463 96.0199 88.9552 96.0199ZM92.3383 94.8259L96.4179 100.299L90.9453 96.2189C91.5423 95.8209 92.0398 95.3234 92.3383 94.8259ZM99.5025 92.8358L92.8358 93.8309C92.9353 93.5324 92.9353 93.1343 92.9353 92.8358C92.9353 92.5373 92.9353 92.1393 92.8358 91.8408L99.5025 92.8358Z" fill="#CCEEFF"/>
<path id="Vector_3" d="M118.905 54.7263L123.085 51.6418L120 55.7214C119.801 55.4229 119.403 55.0249 118.905 54.7263ZM116.716 54.4278L117.512 49.3532L118.308 54.4278C118.109 54.3283 117.811 54.3283 117.512 54.3283C117.214 54.3283 116.915 54.4278 116.716 54.4278ZM114.826 55.8209L111.741 51.7413L115.92 54.8258C115.522 55.0249 115.124 55.4229 114.826 55.8209ZM114.428 57.3134C114.428 57.6119 114.428 57.8109 114.527 58.1094L109.453 57.3134L114.527 56.5174C114.527 56.8159 114.428 57.1144 114.428 57.3134ZM115.92 59.9005L111.741 62.9851L114.826 58.9054C115.124 59.3035 115.522 59.602 115.92 59.9005ZM118.209 60.199L117.413 65.2736L116.617 60.199C116.816 60.2985 117.114 60.2985 117.413 60.2985C117.711 60.2985 117.91 60.2985 118.209 60.199ZM117.413 59.801C116.02 59.801 114.925 58.7064 114.925 57.3134C114.925 55.9204 116.02 54.8258 117.413 54.8258C118.806 54.8258 119.901 55.9204 119.901 57.3134C119.901 58.7064 118.806 59.801 117.413 59.801ZM120 58.8059L123.085 62.8855L118.905 59.801C119.403 59.602 119.801 59.3035 120 58.8059ZM125.373 57.3134L120.299 58.1094C120.398 57.9104 120.398 57.6119 120.398 57.3134C120.398 57.0149 120.398 56.8159 120.299 56.5174L125.373 57.3134Z" fill="#CCEEFF"/>
<path id="Vector_4" d="M128.905 94.7263L133.085 91.6418L130 95.7214C129.801 95.4229 129.403 95.0249 128.905 94.7263ZM126.716 94.4278L127.512 89.3532L128.308 94.4278C128.109 94.3283 127.811 94.3283 127.512 94.3283C127.214 94.3283 126.915 94.4278 126.716 94.4278ZM124.826 95.8209L121.741 91.7413L125.92 94.8258C125.522 95.0249 125.124 95.4229 124.826 95.8209ZM124.428 97.3134C124.428 97.6119 124.428 97.8109 124.527 98.1094L119.453 97.3134L124.527 96.5174C124.527 96.8159 124.428 97.1144 124.428 97.3134ZM125.92 99.9005L121.741 102.985L124.826 98.9054C125.124 99.3035 125.522 99.602 125.92 99.9005ZM128.209 100.199L127.413 105.274L126.617 100.199C126.816 100.298 127.114 100.298 127.413 100.298C127.711 100.298 127.91 100.298 128.209 100.199ZM127.413 99.801C126.02 99.801 124.925 98.7064 124.925 97.3134C124.925 95.9204 126.02 94.8258 127.413 94.8258C128.806 94.8258 129.901 95.9204 129.901 97.3134C129.901 98.7064 128.806 99.801 127.413 99.801ZM130 98.8059L133.085 102.886L128.905 99.801C129.403 99.602 129.801 99.3035 130 98.8059ZM135.373 97.3134L130.299 98.1094C130.398 97.9104 130.398 97.6119 130.398 97.3134C130.398 97.0149 130.398 96.8159 130.299 96.5174L135.373 97.3134Z" fill="#CCEEFF"/>
<path id="Vector_5" d="M190.547 82.5871L194.726 79.5025L191.642 83.5821C191.443 83.2836 191.045 82.8856 190.547 82.5871ZM188.358 82.2886L189.154 77.2139L189.95 82.2886C189.751 82.1891 189.453 82.1891 189.154 82.1891C188.856 82.1891 188.557 82.2886 188.358 82.2886ZM186.468 83.6816L183.383 79.602L187.562 82.6866C187.164 82.8856 186.766 83.2836 186.468 83.6816ZM186.07 85.1741C186.07 85.4726 186.07 85.6716 186.169 85.9701L181.094 85.1741L186.169 84.3781C186.169 84.6766 186.07 84.9751 186.07 85.1741ZM187.562 87.7612L183.383 90.8458L186.468 86.7662C186.766 87.1642 187.164 87.4627 187.562 87.7612ZM189.851 88.0597L189.055 93.1343L188.259 88.0597C188.458 88.1592 188.756 88.1592 189.055 88.1592C189.353 88.1592 189.552 88.1592 189.851 88.0597ZM189.055 87.6617C187.662 87.6617 186.567 86.5672 186.567 85.1741C186.567 83.7811 187.662 82.6866 189.055 82.6866C190.448 82.6866 191.542 83.7811 191.542 85.1741C191.542 86.5672 190.448 87.6617 189.055 87.6617ZM191.642 86.6667L194.726 90.7463L190.547 87.6617C191.045 87.4627 191.443 87.1642 191.642 86.6667ZM197.015 85.1741L191.94 85.9701C192.04 85.7711 192.04 85.4726 192.04 85.1741C192.04 84.8756 192.04 84.6766 191.94 84.3781L197.015 85.1741Z" fill="#CCEEFF"/>
<path id="Vector_6" d="M170.547 69.5522L176.02 65.4726L171.94 70.9453C171.642 70.3483 171.144 69.8507 170.547 69.5522ZM167.562 69.0547L168.557 62.3881L169.552 69.0547C169.254 68.9552 168.856 68.9552 168.557 68.9552C168.159 68.9552 167.861 69.0547 167.562 69.0547ZM165.174 70.9453L161.095 65.4726L166.567 69.5522C165.97 69.8507 165.473 70.3483 165.174 70.9453ZM164.577 72.9353C164.577 73.2338 164.577 73.6318 164.677 73.9303L158.01 72.9353L164.677 71.9403C164.677 72.2388 164.577 72.5373 164.577 72.9353ZM166.567 76.3184L161.095 80.398L165.174 74.9254C165.473 75.4229 165.97 75.9204 166.567 76.3184ZM169.552 76.7164L168.557 83.3831L167.562 76.7164C167.861 76.8159 168.259 76.8159 168.557 76.8159C168.856 76.8159 169.254 76.8159 169.552 76.7164ZM168.557 76.1194C166.766 76.1194 165.274 74.6269 165.274 72.9353C165.274 71.1443 166.766 69.7512 168.557 69.7512C170.348 69.7512 171.841 71.2438 171.841 72.9353C171.741 74.7264 170.348 76.1194 168.557 76.1194ZM171.94 74.9254L176.02 80.398L170.547 76.3184C171.144 75.9204 171.642 75.4229 171.94 74.9254ZM179.104 72.9353L172.438 73.9303C172.537 73.6318 172.537 73.2338 172.537 72.9353C172.537 72.6368 172.537 72.2388 172.438 71.9403L179.104 72.9353Z" fill="#CCEEFF"/>
<g id="Group 5">
<path id="Vector_7" d="M167.363 92.6368C193.532 107.761 202.488 141.194 187.363 167.363C172.239 193.532 138.806 202.488 112.637 187.363C86.4677 172.239 77.5124 138.806 92.6368 112.637C107.761 86.4677 141.294 77.5125 167.363 92.6368Z" fill="#B5E0F3"/>
<path id="Vector_8" d="M146.07 95.9204C146.965 96.4179 147.264 97.6119 146.667 98.607C146.07 99.602 144.975 99.9005 144.08 99.403C143.184 98.9055 142.886 97.7114 143.483 96.7164C143.98 95.7214 145.174 95.4229 146.07 95.9204Z" fill="#67A6CF"/>
<path id="Vector_9" d="M145.672 95.7214C146.667 96.3184 146.965 97.5124 146.368 98.5075C145.771 99.5025 144.577 99.801 143.582 99.204C142.587 98.607 142.289 97.4129 142.886 96.4179C143.483 95.5224 144.776 95.1244 145.672 95.7214Z" fill="#B5E0F3"/>
<path id="Vector_10" d="M144.975 95.7214C145.473 96.0199 145.473 96.8159 144.975 97.6119C144.577 98.408 143.781 98.806 143.383 98.5075C142.886 98.209 142.886 97.4129 143.383 96.6169C143.781 95.9204 144.478 95.5224 144.975 95.7214Z" fill="#67A6CF"/>
<path id="Vector_11" d="M158.806 94.9254C159.602 96.2189 159.005 98.01 157.512 98.9055C156.02 99.7015 154.229 99.3035 153.433 98.01C152.637 96.7164 153.234 94.9254 154.726 94.0299C156.219 93.2338 158.01 93.5324 158.806 94.9254Z" fill="#67A6CF"/>
<path id="Vector_12" d="M158.507 94.4279C159.303 95.9204 158.806 97.7115 157.413 98.607C155.92 99.403 154.129 98.9055 153.234 97.5125C152.438 96.0199 152.935 94.2289 154.328 93.3334C155.721 92.4378 157.612 92.9353 158.507 94.4279Z" fill="#B5E0F3"/>
<path id="Vector_13" d="M157.413 93.9303C157.811 94.6269 157.214 95.7214 156.02 96.4179C154.826 97.1144 153.632 97.1144 153.234 96.4179C152.836 95.7214 153.433 94.6269 154.627 93.9303C155.821 93.2338 157.015 93.2338 157.413 93.9303Z" fill="#67A6CF"/>
<path id="Vector_14" d="M158.209 95.5224C158.607 96.2189 158.01 97.3134 156.816 98.0099C155.622 98.7065 154.428 98.7065 154.03 98.0099C153.632 97.3134 154.229 96.2189 155.423 95.5224C156.617 94.8259 157.811 94.8259 158.209 95.5224Z" fill="#B5E0F3"/>
<path id="Vector_15" d="M143.383 103.184C146.169 104.776 146.965 108.458 145.274 111.343C143.582 114.229 140 115.323 137.214 113.731C134.428 112.139 133.632 108.458 135.323 105.572C137.015 102.687 140.597 101.592 143.383 103.184Z" fill="#B5E0F3"/>
<path id="Vector_16" d="M141.393 102.189C144.179 103.781 145.075 107.264 143.483 110.05C141.891 112.836 138.408 113.731 135.622 112.139C132.836 110.547 131.94 107.065 133.532 104.279C135.124 101.592 138.607 100.597 141.393 102.189Z" fill="#67A6CF"/>
<path id="Vector_17" d="M138.971 104.136C141.459 102.861 143.916 103.784 144.557 106.17C145.198 108.557 143.699 111.445 141.212 112.72C138.724 113.995 136.267 113.072 135.626 110.686C135.04 108.344 136.484 105.411 138.971 104.136Z" fill="#B5E0F3"/>
<path id="Vector_18" d="M123.483 133.035C124.478 133.632 124.876 134.925 124.179 136.02C123.582 137.114 122.189 137.512 121.194 136.915C120.199 136.318 119.801 135.025 120.498 133.93C121.194 132.836 122.488 132.438 123.483 133.035Z" fill="#B5E0F3"/>
<path id="Vector_19" d="M121.99 132.736C122.786 133.234 122.985 134.328 122.488 135.224C121.99 136.119 120.896 136.517 120.1 136.119C119.303 135.622 119.104 134.527 119.602 133.632C120.199 132.736 121.194 132.338 121.99 132.736Z" fill="#67A6CF"/>
<path id="Vector_20" d="M134.826 140.398C135.92 140.995 136.418 142.388 135.821 143.284C135.224 144.279 133.93 144.577 132.836 143.881C131.741 143.284 131.244 141.891 131.841 140.995C132.338 140 133.731 139.701 134.826 140.398Z" fill="#B5E0F3"/>
<path id="Vector_21" d="M135.622 140.796C136.716 141.393 137.114 142.886 136.418 144.08C135.721 145.274 134.328 145.672 133.134 145.075C132.04 144.478 131.642 142.985 132.338 141.791C133.035 140.597 134.527 140.199 135.622 140.796Z" fill="#67A6CF"/>
<path id="Vector_22" d="M135.622 142.189C136.418 142.687 136.617 143.781 136.119 144.677C135.622 145.572 134.527 145.97 133.731 145.473C132.935 144.975 132.736 143.881 133.234 142.985C133.731 142.09 134.826 141.692 135.622 142.189Z" fill="#B5E0F3"/>
<path id="Vector_23" d="M119.701 141.791C121.99 143.085 122.786 145.771 121.592 147.861C120.398 149.95 117.612 150.547 115.323 149.254C113.035 147.96 112.239 145.274 113.433 143.184C114.726 141.194 117.512 140.498 119.701 141.791Z" fill="#B5E0F3"/>
<path id="Union" d="M129.055 116.617C132.537 113.93 129.95 108.458 129.95 108.458L132.239 109.851C132.239 109.851 131.94 104.677 135.721 101.692C139.502 98.607 145.473 103.682 145.473 103.682C145.473 103.682 154.428 101.493 158.706 100.896C162.985 100.299 169.154 101.393 174.428 104.378C179.602 107.463 181.99 112.736 183.781 116.716C184.349 117.978 184.937 119.15 185.526 120.324C186.794 122.853 188.067 125.39 189.154 128.856C190.746 133.93 189.453 144.975 189.453 144.975L187.761 143.682L188.358 150.249C188.358 150.249 188.657 156.915 187.264 160.398C185.97 163.881 183.582 167.264 181.294 170.348C180.655 171.236 180.195 171.915 179.814 172.478C178.827 173.934 178.367 174.612 176.716 176.119C174.428 178.209 164.08 183.682 160.398 184.776C156.816 185.871 150.746 181.791 150.746 181.791C150.746 181.791 150.149 182.587 149.055 183.184C147.96 183.881 142.388 185.97 136.915 184.478C131.443 182.985 129.751 175.721 129.751 175.721C129.751 175.721 127.164 175.721 125.373 174.826C123.483 173.831 123.184 169.95 123.184 169.95C123.184 169.95 121.493 169.353 120 168.458C118.507 167.662 114.726 169.851 114.726 169.851C114.726 169.851 117.114 167.363 118.01 165.771C118.905 164.179 118.905 163.184 118.607 160.796C118.408 158.308 115.522 154.428 115.522 154.428L119.204 157.413L116.816 150.846C116.816 150.846 115.025 149.652 113.234 147.861C111.443 145.97 111.642 142.388 113.134 140.896C114.627 139.303 118.607 140.398 118.607 140.398L119.901 136.517C119.901 136.517 118.806 134.229 119.602 132.736C120.299 131.244 123.284 132.139 123.284 132.139C123.284 132.139 121.891 130.945 120.199 130.647C118.507 130.448 115.224 133.93 115.224 133.93C115.224 133.93 115.423 130.846 116.716 126.866C118.01 122.886 121.493 120.398 121.493 120.398L119.602 118.706C119.602 118.706 125.572 119.303 129.055 116.617Z" fill="#67A6CF"/>
<path id="Vector_24" d="M120.585 144.755C120.765 146.663 119.729 148.612 118.089 149.028C116.501 149.501 115.059 148.295 114.878 146.387C114.697 144.48 115.733 142.53 117.373 142.115C118.961 141.641 120.404 142.847 120.585 144.755Z" fill="#B5E0F3"/>
<path id="Vector_25" d="M117.015 121.493C119.204 122.786 119.901 125.771 118.507 128.159C117.114 130.547 114.229 131.443 111.94 130.249C109.751 128.955 109.055 125.97 110.448 123.582C111.841 121.095 114.826 120.199 117.015 121.493Z" fill="#67A6CF"/>
<path id="Vector_26" d="M117.015 121.493C118.806 122.488 119.104 125.373 117.711 127.761C116.318 130.149 113.731 131.244 111.94 130.249C110.149 129.254 109.851 126.368 111.244 123.98C112.637 121.493 115.224 120.398 117.015 121.493Z" fill="#B5E0F3"/>
<path id="Vector_27" d="M121.99 120.995C122.886 121.493 122.388 124.08 120.796 126.766C119.204 129.453 117.214 131.244 116.418 130.746C115.522 130.249 116.02 127.662 117.612 124.975C119.104 122.189 121.095 120.398 121.99 120.995Z" fill="#B5E0F3"/>
<path id="Vector_28" d="M115.779 120.457C115.779 120.457 115.721 121.061 116.306 121.37C116.891 121.679 116.723 122.233 116.723 122.233L115.761 122.256L115.836 123.088L114.852 122.933L114.838 123.892L113.655 123.814C113.655 123.814 112.484 123.615 112.305 124.289C112.17 124.9 112.654 125.457 112.654 125.457C112.654 125.457 111.761 124.755 111.097 124.872C110.434 124.989 109.979 125.327 109.979 125.327C109.979 125.327 111.227 122.704 112.446 122.001C113.709 121.233 115.779 120.457 115.779 120.457Z" fill="#67A6CF"/>
<path id="Vector_29" d="M164.08 115.224C171.542 119.502 174.03 128.955 169.751 136.418C165.473 143.881 155.92 146.368 148.557 142.09C141.095 137.811 138.607 128.358 142.886 120.896C147.164 113.532 156.716 110.945 164.08 115.224Z" fill="#B5E0F3"/>
<path id="Vector_30" d="M163.284 115.821C170.05 119.701 172.239 128.657 168.159 135.721C164.08 142.786 155.323 145.373 148.458 141.493C141.692 137.612 139.503 128.657 143.582 121.592C147.662 114.428 156.517 111.94 163.284 115.821Z" fill="#67A6CF"/>
<path id="Vector_31" d="M167.761 123.483C168.06 123.682 168.159 124.08 167.96 124.378C167.761 124.677 167.363 124.776 167.065 124.577C166.766 124.378 166.667 123.98 166.866 123.682C167.065 123.383 167.463 123.284 167.761 123.483Z" fill="#B5E0F3"/>
<path id="Vector_32" d="M170.348 125.572C170.846 125.871 170.945 126.468 170.746 126.866C170.448 127.363 169.851 127.463 169.453 127.264C168.955 126.965 168.856 126.368 169.055 125.97C169.254 125.473 169.851 125.274 170.348 125.572Z" fill="#B5E0F3"/>
<path id="Vector_33" d="M168.657 131.343C169.154 131.642 169.254 132.239 169.055 132.637C168.756 133.134 168.159 133.234 167.761 133.035C167.264 132.736 167.164 132.139 167.363 131.741C167.662 131.244 168.259 131.144 168.657 131.343Z" fill="#B5E0F3"/>
<path id="Vector_34" d="M168.557 127.96C168.856 128.159 168.955 128.557 168.756 128.856C168.557 129.154 168.159 129.254 167.861 129.055C167.562 128.856 167.463 128.458 167.662 128.159C167.861 127.861 168.259 127.761 168.557 127.96Z" fill="#B5E0F3"/>
<path id="Vector_35" d="M184.975 145.97C188.955 148.259 190.249 153.234 187.96 157.214C185.672 161.194 180.697 162.488 176.716 160.199C172.736 157.91 171.443 152.935 173.731 148.955C176.02 144.975 180.995 143.682 184.975 145.97Z" fill="#B5E0F3"/>
<path id="Vector_36" d="M183.781 146.368C187.164 148.358 188.259 152.836 186.269 156.318C184.179 159.901 179.801 161.194 176.418 159.204C173.035 157.214 171.94 152.736 173.93 149.254C176.02 145.672 180.398 144.378 183.781 146.368Z" fill="#67A6CF"/>
<path id="Vector_37" d="M146.667 164.776C151.841 167.761 153.532 174.328 150.547 179.403C147.562 184.577 140.995 186.269 135.92 183.284C130.746 180.298 129.055 173.731 132.04 168.657C134.925 163.582 141.493 161.791 146.667 164.776Z" fill="#B5E0F3"/>
<path id="Vector_38" d="M145.672 165.672C150.448 168.358 152.04 174.428 149.353 179.105C146.667 183.781 140.597 185.473 135.821 182.687C131.045 180 129.453 173.93 132.139 169.254C134.925 164.478 140.995 162.886 145.672 165.672Z" fill="#67A6CF"/>
<path id="Vector_39" d="M130.149 166.468C132.239 167.662 133.035 170.348 131.741 172.438C130.547 174.527 127.861 175.224 125.771 174.03C123.682 172.836 122.886 170.149 124.179 168.06C125.373 165.97 128.06 165.274 130.149 166.468Z" fill="#B5E0F3"/>
<path id="Vector_40" d="M128.159 167.363C129.851 168.358 130.448 170.547 129.453 172.338C128.458 174.129 126.269 174.726 124.478 173.731C122.786 172.736 122.189 170.547 123.184 168.756C124.179 166.965 126.468 166.368 128.159 167.363Z" fill="#67A6CF"/>
<g id="Group 1">
<path id="Vector_41" d="M120.896 176.318C122.985 177.512 123.682 180.199 122.488 182.289C121.294 184.378 118.607 185.075 116.517 183.881C114.428 182.687 113.731 180 114.925 177.91C116.119 175.821 118.806 175.124 120.896 176.318Z" fill="#67A6CF"/>
<path id="Vector_42" d="M120.299 176.518C122.388 177.712 123.085 180.399 121.891 182.488C120.697 184.578 118.01 185.274 115.92 184.08C113.831 182.886 113.134 180.2 114.328 178.11C115.423 176.021 118.109 175.225 120.299 176.518Z" fill="#B5E0F3"/>
<path id="Vector_43" d="M119.801 177.214C121.592 178.209 122.189 180.498 121.194 182.189C120.199 183.98 117.91 184.577 116.219 183.582C114.428 182.587 113.831 180.299 114.826 178.607C115.821 176.816 118.109 176.219 119.801 177.214Z" fill="#67A6CF"/>
<path id="Vector_44" d="M120.796 177.512C122.09 178.308 122.388 180.298 121.393 181.99C120.398 183.682 118.607 184.478 117.214 183.682C115.92 182.886 115.622 180.895 116.617 179.204C117.711 177.612 119.503 176.816 120.796 177.512Z" fill="#B5E0F3"/>
</g>
<g id="Group 2">
<path id="Vector_45" d="M111.959 154.217C116.559 156.846 118.092 162.761 115.464 167.361C112.835 171.961 106.92 173.494 102.32 170.866C97.72 168.237 96.1866 162.323 98.8153 157.722C101.444 153.122 107.359 151.589 111.959 154.217Z" fill="#67A6CF"/>
<path id="Vector_46" d="M110.644 154.655C115.245 157.284 116.778 163.199 114.149 167.799C111.521 172.399 105.606 173.933 101.006 171.304C96.4056 168.675 94.8722 162.761 97.5009 158.16C99.9105 153.56 105.825 151.808 110.644 154.655Z" fill="#B5E0F3"/>
<path id="Vector_47" d="M109.549 156.189C113.492 158.379 114.807 163.418 112.616 167.142C110.425 171.085 105.387 172.399 101.663 170.209C97.72 168.018 96.4057 162.98 98.5962 159.256C100.787 155.313 105.825 153.998 109.549 156.189Z" fill="#67A6CF"/>
<path id="Vector_48" d="M111.74 156.846C114.587 158.598 115.245 162.98 113.054 166.704C110.863 170.428 106.92 172.18 103.854 170.428C101.006 168.675 100.349 164.294 102.539 160.57C104.949 157.065 108.892 155.313 111.74 156.846Z" fill="#B5E0F3"/>
</g>
<g id="Group 3">
<path id="Vector_49" d="M99.7035 127.002C103.048 128.913 104.163 133.214 102.252 136.559C100.341 139.904 96.04 141.018 92.6951 139.107C89.3502 137.196 88.2353 132.895 90.1466 129.55C92.058 126.205 96.3586 125.09 99.7035 127.002Z" fill="#67A6CF"/>
<path id="Vector_50" d="M98.7477 127.32C102.093 129.232 103.208 133.532 101.296 136.877C99.3848 140.222 95.0843 141.337 91.7394 139.426C88.3945 137.514 87.2795 133.214 89.1909 129.869C90.943 126.524 95.2435 125.25 98.7477 127.32Z" fill="#B5E0F3"/>
<path id="Vector_51" d="M97.9513 128.435C100.818 130.028 101.774 133.692 100.181 136.399C98.5885 139.266 94.925 140.222 92.2173 138.629C89.3502 137.036 88.3945 133.373 89.9873 130.665C91.5801 127.798 95.2436 126.843 97.9513 128.435Z" fill="#67A6CF"/>
<path id="Vector_52" d="M99.2087 128.509C101.368 129.921 101.866 133.45 100.205 136.45C98.5443 139.45 95.5545 140.861 93.2291 139.45C91.0698 138.038 90.5715 134.509 92.2325 131.509C94.0596 128.686 97.0494 127.274 99.2087 128.509Z" fill="#B5E0F3"/>
</g>
<g id="Group 4">
<path id="Vector_53" d="M128.89 107.999C130.618 110.96 129.563 114.77 126.603 116.497C123.642 118.224 119.832 117.17 118.104 114.209C116.377 111.248 117.431 107.438 120.392 105.711C123.353 103.984 127.163 105.038 128.89 107.999Z" fill="#67A6CF"/>
<path id="Vector_54" d="M128.012 107.819C129.739 110.78 128.685 114.59 125.724 116.317C122.763 118.045 118.953 116.99 117.226 114.029C115.499 111.068 116.553 107.259 119.514 105.531C122.352 103.733 126.233 104.665 128.012 107.819Z" fill="#B5E0F3"/>
<path id="Vector_55" d="M126.903 108.324C128.403 110.827 127.51 114.075 125.078 115.453C122.575 116.954 119.327 116.06 117.949 113.628C116.448 111.125 117.341 107.877 119.774 106.499C122.276 104.999 125.525 105.892 126.903 108.324Z" fill="#67A6CF"/>
<path id="Vector_56" d="M127.839 108.94C128.875 110.989 127.688 113.93 125.074 115.503C122.459 117.075 119.527 116.833 118.364 114.711C117.328 112.662 118.514 109.721 121.128 108.148C123.792 106.786 126.724 107.028 127.839 108.94Z" fill="#B5E0F3"/>
</g>
</g>
</g>
</g>
<defs>
<radialGradient id="paint0_radial" cx="0" cy="0" r="1" gradientUnits="userSpaceOnUse" gradientTransform="translate(140 140) rotate(90) scale(100)">
<stop/>
<stop offset="0.640625"/>
<stop offset="1" stop-opacity="0"/>
</radialGradient>
</defs>
</svg>
