<svg width="280" height="280" viewBox="0 0 280 280" fill="none" xmlns="http://www.w3.org/2000/svg">
<g id="067">
<g id="img/moon">
<mask id="mask0" mask-type="alpha" maskUnits="userSpaceOnUse" x="40" y="30" width="200" height="160">
<rect id="Rectangle 1" x="40" y="30" width="200" height="160" fill="#C4C4C4"/>
</mask>
<g mask="url(#mask0)">
<path id="Vector" d="M140 30C195.224 30 240 74.7761 240 130C240 185.224 195.224 230 140 230C84.7761 230 40 185.224 40 130C40 74.7761 84.7761 30 140 30Z" fill="url(#paint0_radial)"/>
<path id="Vector_2" d="M90.9453 79.4528L96.4179 75.3732L92.3383 80.8458C92.0398 80.2488 91.5423 79.7513 90.9453 79.4528ZM87.9602 78.9552L88.9552 72.2886L89.9502 78.9552C89.6517 78.8557 89.2537 78.8557 88.9552 78.8557C88.5572 78.8557 88.2587 78.9552 87.9602 78.9552ZM85.5721 80.8458L81.4925 75.3732L86.9652 79.4528C86.3682 79.7513 85.8706 80.2488 85.5721 80.8458ZM84.9751 82.8358C84.9751 83.1343 84.9751 83.5324 85.0746 83.8309L78.408 82.8358L85.0746 81.8408C85.0746 82.1393 84.9751 82.4378 84.9751 82.8358ZM86.9652 86.2189L81.4925 90.199L85.5721 84.7264C85.8706 85.3234 86.3682 85.8209 86.9652 86.2189ZM89.9502 86.6169L88.9552 93.2836L87.9602 86.6169C88.2587 86.7164 88.6567 86.7164 88.9552 86.7164C89.2537 86.7164 89.6517 86.7164 89.9502 86.6169ZM88.9552 86.0199C87.1642 86.0199 85.6716 84.5274 85.6716 82.8358C85.6716 81.0448 87.1642 79.6518 88.9552 79.6518C90.7463 79.6518 92.2388 81.1443 92.2388 82.8358C92.1393 84.6269 90.7463 86.0199 88.9552 86.0199ZM92.3383 84.8259L96.4179 90.2985L90.9453 86.2189C91.5423 85.8209 92.0398 85.3234 92.3383 84.8259ZM99.5025 82.8358L92.8358 83.8309C92.9353 83.5324 92.9353 83.1343 92.9353 82.8358C92.9353 82.5373 92.9353 82.1393 92.8358 81.8408L99.5025 82.8358Z" fill="#CCEEFF"/>
<path id="Vector_3" d="M118.905 44.7264L123.085 41.6418L120 45.7214C119.801 45.4229 119.403 45.0249 118.905 44.7264ZM116.716 44.4279L117.512 39.3533L118.308 44.4279C118.109 44.3284 117.811 44.3284 117.512 44.3284C117.214 44.3284 116.915 44.4279 116.716 44.4279ZM114.826 45.8209L111.741 41.7413L115.92 44.8259C115.522 45.0249 115.124 45.4229 114.826 45.8209ZM114.428 47.3135C114.428 47.612 114.428 47.811 114.527 48.1095L109.453 47.3135L114.527 46.5175C114.527 46.816 114.428 47.1145 114.428 47.3135ZM115.92 49.9005L111.741 52.9851L114.826 48.9055C115.124 49.3035 115.522 49.602 115.92 49.9005ZM118.209 50.199L117.413 55.2737L116.617 50.199C116.816 50.2985 117.114 50.2985 117.413 50.2985C117.711 50.2985 117.91 50.2985 118.209 50.199ZM117.413 49.801C116.02 49.801 114.925 48.7065 114.925 47.3135C114.925 45.9204 116.02 44.8259 117.413 44.8259C118.806 44.8259 119.901 45.9204 119.901 47.3135C119.901 48.7065 118.806 49.801 117.413 49.801ZM120 48.806L123.085 52.8856L118.905 49.801C119.403 49.602 119.801 49.3035 120 48.806ZM125.373 47.3135L120.299 48.1095C120.398 47.9105 120.398 47.612 120.398 47.3135C120.398 47.015 120.398 46.816 120.299 46.5175L125.373 47.3135Z" fill="#CCEEFF"/>
<path id="Vector_4" d="M128.905 84.7264L133.085 81.6418L130 85.7214C129.801 85.4229 129.403 85.0249 128.905 84.7264ZM126.716 84.4279L127.512 79.3533L128.308 84.4279C128.109 84.3284 127.811 84.3284 127.512 84.3284C127.214 84.3284 126.915 84.4279 126.716 84.4279ZM124.826 85.8209L121.741 81.7413L125.92 84.8259C125.522 85.0249 125.124 85.4229 124.826 85.8209ZM124.428 87.3135C124.428 87.612 124.428 87.811 124.527 88.1095L119.453 87.3135L124.527 86.5175C124.527 86.816 124.428 87.1145 124.428 87.3135ZM125.92 89.9005L121.741 92.9851L124.826 88.9055C125.124 89.3035 125.522 89.602 125.92 89.9005ZM128.209 90.199L127.413 95.2737L126.617 90.199C126.816 90.2985 127.114 90.2985 127.413 90.2985C127.711 90.2985 127.91 90.2985 128.209 90.199ZM127.413 89.801C126.02 89.801 124.925 88.7065 124.925 87.3135C124.925 85.9204 126.02 84.8259 127.413 84.8259C128.806 84.8259 129.901 85.9204 129.901 87.3135C129.901 88.7065 128.806 89.801 127.413 89.801ZM130 88.806L133.085 92.8856L128.905 89.801C129.403 89.602 129.801 89.3035 130 88.806ZM135.373 87.3135L130.299 88.1095C130.398 87.9105 130.398 87.612 130.398 87.3135C130.398 87.015 130.398 86.816 130.299 86.5175L135.373 87.3135Z" fill="#CCEEFF"/>
<path id="Vector_5" d="M190.547 72.587L194.726 69.5024L191.642 73.582C191.443 73.2835 191.045 72.8855 190.547 72.587ZM188.358 72.2885L189.154 67.2139L189.95 72.2885C189.751 72.189 189.453 72.189 189.154 72.189C188.856 72.189 188.557 72.2885 188.358 72.2885ZM186.468 73.6815L183.383 69.6019L187.562 72.6865C187.164 72.8855 186.766 73.2835 186.468 73.6815ZM186.07 75.1741C186.07 75.4726 186.07 75.6716 186.169 75.9701L181.094 75.1741L186.169 74.378C186.169 74.6766 186.07 74.9751 186.07 75.1741ZM187.562 77.7611L183.383 80.8457L186.468 76.7661C186.766 77.1641 187.164 77.4626 187.562 77.7611ZM189.851 78.0596L189.055 83.1343L188.259 78.0596C188.458 78.1591 188.756 78.1591 189.055 78.1591C189.353 78.1591 189.552 78.1591 189.851 78.0596ZM189.055 77.6616C187.662 77.6616 186.567 76.5671 186.567 75.1741C186.567 73.781 187.662 72.6865 189.055 72.6865C190.448 72.6865 191.542 73.781 191.542 75.1741C191.542 76.5671 190.448 77.6616 189.055 77.6616ZM191.642 76.6666L194.726 80.7462L190.547 77.6616C191.045 77.4626 191.443 77.1641 191.642 76.6666ZM197.015 75.1741L191.94 75.9701C192.04 75.7711 192.04 75.4726 192.04 75.1741C192.04 74.8756 192.04 74.6766 191.94 74.378L197.015 75.1741Z" fill="#CCEEFF"/>
<path id="Vector_6" d="M170.547 59.5524L176.02 55.4728L171.94 60.9454C171.642 60.3484 171.144 59.8509 170.547 59.5524ZM167.562 59.0549L168.557 52.3882L169.552 59.0549C169.254 58.9553 168.856 58.9553 168.557 58.9553C168.159 58.9553 167.861 59.0549 167.562 59.0549ZM165.174 60.9454L161.095 55.4728L166.567 59.5524C165.97 59.8509 165.473 60.3484 165.174 60.9454ZM164.577 62.9354C164.577 63.234 164.577 63.632 164.677 63.9305L158.01 62.9354L164.677 61.9404C164.677 62.2389 164.577 62.5374 164.577 62.9354ZM166.567 66.3185L161.095 70.3981L165.174 64.9255C165.473 65.423 165.97 65.9205 166.567 66.3185ZM169.552 66.7165L168.557 73.3832L167.562 66.7165C167.861 66.816 168.259 66.816 168.557 66.816C168.856 66.816 169.254 66.816 169.552 66.7165ZM168.557 66.1195C166.766 66.1195 165.274 64.627 165.274 62.9354C165.274 61.1444 166.766 59.7514 168.557 59.7514C170.348 59.7514 171.841 61.2439 171.841 62.9354C171.741 64.7265 170.348 66.1195 168.557 66.1195ZM171.94 64.9255L176.02 70.3981L170.547 66.3185C171.144 65.9205 171.642 65.423 171.94 64.9255ZM179.104 62.9354L172.438 63.9305C172.537 63.632 172.537 63.234 172.537 62.9354C172.537 62.6369 172.537 62.2389 172.438 61.9404L179.104 62.9354Z" fill="#CCEEFF"/>
<g id="Group 5">
<path id="Vector_7" d="M167.363 82.6368C193.532 97.7611 202.488 131.194 187.363 157.363C172.239 183.532 138.806 192.487 112.637 177.363C86.4677 162.239 77.5124 128.806 92.6368 102.637C107.761 76.4676 141.294 67.5124 167.363 82.6368Z" fill="#B5E0F3"/>
<path id="Vector_8" d="M146.07 85.9204C146.965 86.4179 147.264 87.612 146.667 88.607C146.07 89.602 144.975 89.9005 144.08 89.403C143.184 88.9055 142.886 87.7115 143.483 86.7164C143.98 85.7214 145.174 85.4229 146.07 85.9204Z" fill="#67A6CF"/>
<path id="Vector_9" d="M145.672 85.7214C146.667 86.3184 146.965 87.5124 146.368 88.5074C145.771 89.5025 144.577 89.801 143.582 89.204C142.587 88.6069 142.289 87.4129 142.886 86.4179C143.483 85.5224 144.776 85.1244 145.672 85.7214Z" fill="#B5E0F3"/>
<path id="Vector_10" d="M144.975 85.7214C145.473 86.0199 145.473 86.8159 144.975 87.6119C144.577 88.408 143.781 88.806 143.383 88.5075C142.886 88.209 142.886 87.4129 143.383 86.6169C143.781 85.9204 144.478 85.5224 144.975 85.7214Z" fill="#67A6CF"/>
<path id="Vector_11" d="M158.806 84.9254C159.602 86.219 159.005 88.01 157.512 88.9055C156.02 89.7015 154.229 89.3035 153.433 88.01C152.637 86.7165 153.234 84.9254 154.726 84.0299C156.219 83.2339 158.01 83.5324 158.806 84.9254Z" fill="#67A6CF"/>
<path id="Vector_12" d="M158.507 84.4277C159.303 85.9203 158.806 87.7113 157.413 88.6068C155.92 89.4029 154.129 88.9053 153.234 87.5123C152.438 86.0198 152.935 84.2287 154.328 83.3332C155.721 82.4377 157.612 82.9352 158.507 84.4277Z" fill="#B5E0F3"/>
<path id="Vector_13" d="M157.413 83.9303C157.811 84.6269 157.214 85.7214 156.02 86.4179C154.826 87.1144 153.632 87.1144 153.234 86.4179C152.836 85.7214 153.433 84.6269 154.627 83.9303C155.821 83.2338 157.015 83.2338 157.413 83.9303Z" fill="#67A6CF"/>
<path id="Vector_14" d="M158.209 85.5224C158.607 86.2189 158.01 87.3134 156.816 88.0099C155.622 88.7065 154.428 88.7065 154.03 88.0099C153.632 87.3134 154.229 86.2189 155.423 85.5224C156.617 84.8259 157.811 84.8259 158.209 85.5224Z" fill="#B5E0F3"/>
<path id="Vector_15" d="M143.383 93.184C146.169 94.776 146.965 98.4576 145.274 101.343C143.582 104.229 140 105.323 137.214 103.731C134.428 102.139 133.632 98.4576 135.323 95.572C137.015 92.6864 140.597 91.5919 143.383 93.184Z" fill="#B5E0F3"/>
<path id="Vector_16" d="M141.393 92.189C144.179 93.781 145.075 97.2636 143.483 100.05C141.891 102.836 138.408 103.731 135.622 102.139C132.836 100.547 131.94 97.0646 133.532 94.2785C135.124 91.592 138.607 90.597 141.393 92.189Z" fill="#67A6CF"/>
<path id="Vector_17" d="M138.971 94.1358C141.459 92.8608 143.916 93.7837 144.557 96.1701C145.198 98.5566 143.699 101.445 141.212 102.72C138.724 103.995 136.267 103.072 135.626 100.686C135.04 98.3437 136.484 95.4109 138.971 94.1358Z" fill="#B5E0F3"/>
<path id="Vector_18" d="M123.483 123.035C124.478 123.632 124.876 124.925 124.179 126.02C123.582 127.114 122.189 127.512 121.194 126.915C120.199 126.318 119.801 125.025 120.498 123.93C121.194 122.836 122.488 122.438 123.483 123.035Z" fill="#B5E0F3"/>
<path id="Vector_19" d="M121.99 122.736C122.786 123.234 122.985 124.328 122.488 125.224C121.99 126.119 120.896 126.517 120.1 126.119C119.303 125.622 119.104 124.527 119.602 123.632C120.199 122.736 121.194 122.338 121.99 122.736Z" fill="#67A6CF"/>
<path id="Vector_20" d="M134.826 130.398C135.92 130.995 136.418 132.388 135.821 133.283C135.224 134.279 133.93 134.577 132.836 133.881C131.741 133.283 131.244 131.89 131.841 130.995C132.338 130 133.731 129.701 134.826 130.398Z" fill="#B5E0F3"/>
<path id="Vector_21" d="M135.622 130.796C136.716 131.393 137.114 132.886 136.418 134.08C135.721 135.274 134.328 135.672 133.134 135.075C132.04 134.478 131.642 132.985 132.338 131.791C133.035 130.597 134.527 130.199 135.622 130.796Z" fill="#67A6CF"/>
<path id="Vector_22" d="M135.622 132.189C136.418 132.686 136.617 133.781 136.119 134.676C135.622 135.572 134.527 135.97 133.731 135.472C132.935 134.975 132.736 133.88 133.234 132.985C133.731 132.089 134.826 131.691 135.622 132.189Z" fill="#B5E0F3"/>
<path id="Vector_23" d="M119.701 131.791C121.99 133.085 122.786 135.771 121.592 137.861C120.398 139.95 117.612 140.547 115.323 139.254C113.035 137.96 112.239 135.274 113.433 133.184C114.726 131.194 117.512 130.498 119.701 131.791Z" fill="#B5E0F3"/>
<path id="Union" d="M129.055 106.617C132.537 103.93 129.95 98.4576 129.95 98.4576L132.239 99.8506C132.239 99.8506 131.94 94.6765 135.721 91.6914C139.502 88.6069 145.473 93.6815 145.473 93.6815C145.473 93.6815 154.428 91.4924 158.706 90.8954C162.985 90.2984 169.154 91.3929 174.428 94.378C179.602 97.4626 181.99 102.736 183.781 106.716C184.349 107.978 184.937 109.15 185.526 110.324C186.794 112.852 188.067 115.39 189.154 118.856C190.746 123.93 189.453 134.975 189.453 134.975L187.761 133.681L188.358 140.249C188.358 140.249 188.657 146.915 187.264 150.398C185.97 153.88 183.582 157.264 181.294 160.348C180.655 161.236 180.195 161.915 179.814 162.478C178.827 163.933 178.367 164.612 176.716 166.119C174.428 168.209 164.08 173.681 160.398 174.776C156.816 175.871 150.746 171.791 150.746 171.791C150.746 171.791 150.149 172.587 149.055 173.184C147.96 173.88 142.388 175.97 136.915 174.478C131.443 172.985 129.751 165.721 129.751 165.721C129.751 165.721 127.164 165.721 125.373 164.826C123.483 163.831 123.184 159.95 123.184 159.95C123.184 159.95 121.493 159.353 120 158.458C118.507 157.662 114.726 159.851 114.726 159.851C114.726 159.851 117.114 157.363 118.01 155.771C118.905 154.179 118.905 153.184 118.607 150.796C118.408 148.308 115.522 144.428 115.522 144.428L119.204 147.413L116.816 140.846C116.816 140.846 115.025 139.652 113.234 137.861C111.443 135.97 111.642 132.388 113.134 130.895C114.627 129.303 118.607 130.398 118.607 130.398L119.901 126.517C119.901 126.517 118.806 124.229 119.602 122.736C120.299 121.244 123.284 122.139 123.284 122.139C123.284 122.139 121.891 120.945 120.199 120.647C118.507 120.448 115.224 123.93 115.224 123.93C115.224 123.93 115.423 120.846 116.716 116.866C118.01 112.885 121.493 110.398 121.493 110.398L119.602 108.706C119.602 108.706 125.572 109.303 129.055 106.617Z" fill="#67A6CF"/>
<path id="Vector_24" d="M120.585 134.755C120.765 136.663 119.729 138.612 118.089 139.028C116.501 139.501 115.059 138.295 114.878 136.387C114.697 134.48 115.733 132.53 117.373 132.115C118.961 131.641 120.404 132.847 120.585 134.755Z" fill="#B5E0F3"/>
<path id="Vector_25" d="M117.015 111.493C119.204 112.786 119.901 115.771 118.507 118.159C117.114 120.547 114.229 121.443 111.94 120.249C109.751 118.955 109.055 115.97 110.448 113.582C111.841 111.095 114.826 110.199 117.015 111.493Z" fill="#67A6CF"/>
<path id="Vector_26" d="M117.015 111.492C118.806 112.487 119.104 115.373 117.711 117.761C116.318 120.149 113.731 121.244 111.94 120.249C110.149 119.254 109.851 116.368 111.244 113.98C112.637 111.492 115.224 110.398 117.015 111.492Z" fill="#B5E0F3"/>
<path id="Vector_27" d="M121.99 110.995C122.886 111.492 122.388 114.08 120.796 116.766C119.204 119.453 117.214 121.244 116.418 120.746C115.522 120.249 116.02 117.662 117.612 114.975C119.104 112.189 121.095 110.398 121.99 110.995Z" fill="#B5E0F3"/>
<path id="Vector_28" d="M115.779 110.457C115.779 110.457 115.721 111.061 116.306 111.37C116.891 111.679 116.723 112.233 116.723 112.233L115.761 112.255L115.836 113.088L114.852 112.933L114.838 113.892L113.655 113.814C113.655 113.814 112.484 113.615 112.305 114.289C112.17 114.9 112.654 115.457 112.654 115.457C112.654 115.457 111.761 114.755 111.097 114.872C110.434 114.989 109.979 115.327 109.979 115.327C109.979 115.327 111.227 112.704 112.446 112.001C113.709 111.233 115.779 110.457 115.779 110.457Z" fill="#67A6CF"/>
<path id="Vector_29" d="M164.08 105.224C171.542 109.502 174.03 118.955 169.751 126.418C165.473 133.88 155.92 136.368 148.557 132.089C141.095 127.811 138.607 118.358 142.886 110.895C147.164 103.532 156.716 100.945 164.08 105.224Z" fill="#B5E0F3"/>
<path id="Vector_30" d="M163.284 105.821C170.05 109.701 172.239 118.657 168.159 125.721C164.08 132.786 155.323 135.373 148.458 131.493C141.692 127.612 139.503 118.657 143.582 111.592C147.662 104.428 156.517 101.94 163.284 105.821Z" fill="#67A6CF"/>
<path id="Vector_31" d="M167.761 113.482C168.06 113.681 168.159 114.079 167.96 114.378C167.761 114.676 167.363 114.776 167.065 114.577C166.766 114.378 166.667 113.98 166.866 113.681C167.065 113.383 167.463 113.283 167.761 113.482Z" fill="#B5E0F3"/>
<path id="Vector_32" d="M170.348 115.572C170.846 115.871 170.945 116.468 170.746 116.866C170.448 117.363 169.851 117.463 169.453 117.264C168.955 116.965 168.856 116.368 169.055 115.97C169.254 115.473 169.851 115.274 170.348 115.572Z" fill="#B5E0F3"/>
<path id="Vector_33" d="M168.657 121.343C169.154 121.642 169.254 122.239 169.055 122.637C168.756 123.134 168.159 123.234 167.761 123.035C167.264 122.736 167.164 122.139 167.363 121.741C167.662 121.244 168.259 121.144 168.657 121.343Z" fill="#B5E0F3"/>
<path id="Vector_34" d="M168.557 117.96C168.856 118.159 168.955 118.557 168.756 118.856C168.557 119.154 168.159 119.254 167.861 119.055C167.562 118.856 167.463 118.458 167.662 118.159C167.861 117.861 168.259 117.761 168.557 117.96Z" fill="#B5E0F3"/>
<path id="Vector_35" d="M184.975 135.97C188.955 138.259 190.249 143.234 187.96 147.214C185.672 151.194 180.697 152.487 176.716 150.199C172.736 147.91 171.443 142.935 173.731 138.955C176.02 134.975 180.995 133.681 184.975 135.97Z" fill="#B5E0F3"/>
<path id="Vector_36" d="M183.781 136.368C187.164 138.358 188.259 142.836 186.269 146.318C184.179 149.901 179.801 151.194 176.418 149.204C173.035 147.214 171.94 142.736 173.93 139.254C176.02 135.672 180.398 134.378 183.781 136.368Z" fill="#67A6CF"/>
<path id="Vector_37" d="M146.667 154.776C151.841 157.761 153.532 164.328 150.547 169.403C147.562 174.577 140.995 176.269 135.92 173.284C130.746 170.299 129.055 163.731 132.04 158.657C134.925 153.582 141.493 151.791 146.667 154.776Z" fill="#B5E0F3"/>
<path id="Vector_38" d="M145.672 155.672C150.448 158.358 152.04 164.428 149.353 169.105C146.667 173.781 140.597 175.473 135.821 172.687C131.045 170 129.453 163.93 132.139 159.254C134.925 154.478 140.995 152.886 145.672 155.672Z" fill="#67A6CF"/>
<path id="Vector_39" d="M130.149 156.468C132.239 157.662 133.035 160.348 131.741 162.438C130.547 164.527 127.861 165.224 125.771 164.03C123.682 162.836 122.886 160.149 124.179 158.06C125.373 155.97 128.06 155.274 130.149 156.468Z" fill="#B5E0F3"/>
<path id="Vector_40" d="M128.159 157.363C129.851 158.358 130.448 160.547 129.453 162.338C128.458 164.129 126.269 164.726 124.478 163.731C122.786 162.736 122.189 160.547 123.184 158.756C124.179 156.965 126.468 156.368 128.159 157.363Z" fill="#67A6CF"/>
<g id="Group 1">
<path id="Vector_41" d="M120.896 166.318C122.985 167.512 123.682 170.199 122.488 172.289C121.294 174.378 118.607 175.075 116.517 173.881C114.428 172.687 113.731 170 114.925 167.91C116.119 165.821 118.806 165.124 120.896 166.318Z" fill="#67A6CF"/>
<path id="Vector_42" d="M120.299 166.518C122.388 167.712 123.085 170.399 121.891 172.488C120.697 174.578 118.01 175.274 115.92 174.08C113.831 172.886 113.134 170.2 114.328 168.11C115.423 166.021 118.109 165.225 120.299 166.518Z" fill="#B5E0F3"/>
<path id="Vector_43" d="M119.801 167.214C121.592 168.209 122.189 170.498 121.194 172.189C120.199 173.98 117.91 174.577 116.219 173.582C114.428 172.587 113.831 170.299 114.826 168.607C115.821 166.816 118.109 166.219 119.801 167.214Z" fill="#67A6CF"/>
<path id="Vector_44" d="M120.796 167.512C122.09 168.308 122.388 170.299 121.393 171.99C120.398 173.682 118.607 174.478 117.214 173.682C115.92 172.886 115.622 170.896 116.617 169.204C117.711 167.612 119.503 166.816 120.796 167.512Z" fill="#B5E0F3"/>
</g>
<g id="Group 2">
<path id="Vector_45" d="M111.959 144.217C116.559 146.846 118.092 152.761 115.464 157.361C112.835 161.961 106.92 163.494 102.32 160.866C97.72 158.237 96.1866 152.322 98.8153 147.722C101.444 143.122 107.359 141.589 111.959 144.217Z" fill="#67A6CF"/>
<path id="Vector_46" d="M110.644 144.655C115.245 147.284 116.778 153.199 114.149 157.799C111.521 162.399 105.606 163.933 101.006 161.304C96.4056 158.675 94.8722 152.761 97.5009 148.16C99.9105 143.56 105.825 141.808 110.644 144.655Z" fill="#B5E0F3"/>
<path id="Vector_47" d="M109.549 146.189C113.492 148.379 114.807 153.418 112.616 157.142C110.425 161.085 105.387 162.399 101.663 160.209C97.72 158.018 96.4057 152.98 98.5962 149.256C100.787 145.313 105.825 143.998 109.549 146.189Z" fill="#67A6CF"/>
<path id="Vector_48" d="M111.74 146.846C114.587 148.599 115.245 152.98 113.054 156.704C110.863 160.428 106.92 162.18 103.854 160.428C101.006 158.675 100.349 154.294 102.539 150.57C104.949 147.065 108.892 145.313 111.74 146.846Z" fill="#B5E0F3"/>
</g>
<g id="Group 3">
<path id="Vector_49" d="M99.7035 117.002C103.048 118.913 104.163 123.214 102.252 126.559C100.341 129.903 96.04 131.018 92.6951 129.107C89.3502 127.196 88.2353 122.895 90.1466 119.55C92.058 116.205 96.3586 115.09 99.7035 117.002Z" fill="#67A6CF"/>
<path id="Vector_50" d="M98.7477 117.32C102.093 119.232 103.208 123.532 101.296 126.877C99.3848 130.222 95.0843 131.337 91.7394 129.426C88.3945 127.514 87.2795 123.214 89.1909 119.869C90.943 116.524 95.2435 115.25 98.7477 117.32Z" fill="#B5E0F3"/>
<path id="Vector_51" d="M97.9513 118.435C100.818 120.028 101.774 123.692 100.181 126.399C98.5885 129.266 94.925 130.222 92.2173 128.629C89.3502 127.036 88.3945 123.373 89.9873 120.665C91.5801 117.798 95.2436 116.842 97.9513 118.435Z" fill="#67A6CF"/>
<path id="Vector_52" d="M99.2087 118.509C101.368 119.921 101.866 123.45 100.205 126.45C98.5443 129.449 95.5545 130.861 93.2291 129.449C91.0698 128.038 90.5715 124.509 92.2325 121.509C94.0596 118.685 97.0494 117.274 99.2087 118.509Z" fill="#B5E0F3"/>
</g>
<g id="Group 4">
<path id="Vector_53" d="M128.89 97.9991C130.618 100.96 129.563 104.77 126.603 106.497C123.642 108.224 119.832 107.17 118.104 104.209C116.377 101.248 117.431 97.4382 120.392 95.7111C123.353 93.984 127.163 95.0381 128.89 97.9991Z" fill="#67A6CF"/>
<path id="Vector_54" d="M128.012 97.8192C129.739 100.78 128.685 104.59 125.724 106.317C122.763 108.044 118.953 106.99 117.226 104.029C115.499 101.068 116.553 97.2584 119.514 95.5313C122.352 93.7333 126.233 94.6646 128.012 97.8192Z" fill="#B5E0F3"/>
<path id="Vector_55" d="M126.903 98.3242C128.403 100.827 127.51 104.075 125.078 105.453C122.575 106.954 119.327 106.06 117.949 103.628C116.448 101.125 117.341 97.8773 119.774 96.4994C122.276 94.9987 125.525 95.8921 126.903 98.3242Z" fill="#67A6CF"/>
<path id="Vector_56" d="M127.839 98.9404C128.875 100.989 127.688 103.93 125.074 105.503C122.459 107.075 119.527 106.833 118.364 104.711C117.328 102.662 118.514 99.7209 121.128 98.1483C123.792 96.7856 126.724 97.0279 127.839 98.9404Z" fill="#B5E0F3"/>
</g>
</g>
</g>
</g>
<g id="img/drops5">
<g id="img/drop1">
<path id="Vector_57" d="M86.6148 210C84.5148 219.2 80.9148 224.4 82.3148 229.3C83.6148 234.2 88.7148 237.1 93.6148 235.8C98.5148 234.5 101.415 229.4 100.115 224.5C98.7148 219.6 93.5148 216.9 86.6148 210Z" fill="url(#paint1_linear)" stroke="#6B92A8" stroke-width="2" stroke-miterlimit="10"/>
<path id="Vector_58" d="M93.1148 224.5C94.4148 229.3 92.5148 232 89.5148 232.8C88.9148 233 88.3148 233 87.7148 232.9C89.2148 233.7 91.0148 233.9 92.8148 233.5C96.6148 232.5 98.8148 228.6 97.8148 224.9C96.8148 221.1 87.5148 213.7 87.5148 213.7C87.5148 213.7 91.8148 219.7 93.1148 224.5Z" fill="white"/>
</g>
<g id="img/drop1_2">
<path id="Vector_59" d="M135.465 210C133.365 219.2 129.765 224.4 131.165 229.3C132.465 234.2 137.565 237.1 142.465 235.8C147.365 234.5 150.265 229.4 148.965 224.5C147.565 219.6 142.365 216.9 135.465 210Z" fill="url(#paint2_linear)" stroke="#6B92A8" stroke-width="2" stroke-miterlimit="10"/>
<path id="Vector_60" d="M141.965 224.5C143.265 229.3 141.365 232 138.365 232.8C137.765 233 137.165 233 136.565 232.9C138.065 233.7 139.865 233.9 141.665 233.5C145.465 232.5 147.665 228.6 146.665 224.9C145.665 221.1 136.365 213.7 136.365 213.7C136.365 213.7 140.665 219.7 141.965 224.5Z" fill="white"/>
</g>
<g id="img/drop1_3">
<path id="Vector_61" d="M111.04 221.3C108.94 230.5 105.34 235.7 106.74 240.6C108.04 245.5 113.14 248.4 118.04 247.1C122.94 245.8 125.84 240.7 124.54 235.8C123.14 230.9 117.94 228.2 111.04 221.3Z" fill="url(#paint3_linear)" stroke="#6B92A8" stroke-width="2" stroke-miterlimit="10"/>
<path id="Vector_62" d="M117.54 235.8C118.84 240.6 116.94 243.3 113.94 244.1C113.34 244.3 112.74 244.3 112.14 244.2C113.64 245 115.44 245.2 117.24 244.8C121.04 243.8 123.24 239.9 122.24 236.2C121.24 232.4 111.94 225 111.94 225C111.94 225 116.24 231 117.54 235.8Z" fill="white"/>
</g>
<g id="img/drop1_4">
<path id="Vector_63" d="M184.316 210C182.216 219.2 178.616 224.4 180.016 229.3C181.316 234.2 186.416 237.1 191.316 235.8C196.216 234.5 199.116 229.4 197.816 224.5C196.416 219.6 191.216 216.9 184.316 210Z" fill="url(#paint4_linear)" stroke="#6B92A8" stroke-width="2" stroke-miterlimit="10"/>
<path id="Vector_64" d="M190.816 224.5C192.116 229.3 190.216 232 187.216 232.8C186.616 233 186.016 233 185.416 232.9C186.916 233.7 188.716 233.9 190.516 233.5C194.316 232.5 196.516 228.6 195.516 224.9C194.516 221.1 185.216 213.7 185.216 213.7C185.216 213.7 189.516 219.7 190.816 224.5Z" fill="white"/>
</g>
<g id="img/drop1_5">
<path id="Vector_65" d="M159.891 221.3C157.791 230.5 154.191 235.7 155.591 240.6C156.891 245.5 161.991 248.4 166.891 247.1C171.791 245.8 174.691 240.7 173.391 235.8C171.991 230.9 166.791 228.2 159.891 221.3Z" fill="url(#paint5_linear)" stroke="#6B92A8" stroke-width="2" stroke-miterlimit="10"/>
<path id="Vector_66" d="M166.391 235.8C167.691 240.6 165.791 243.3 162.791 244.1C162.191 244.3 161.591 244.3 160.991 244.2C162.491 245 164.291 245.2 166.091 244.8C169.891 243.8 172.091 239.9 171.091 236.2C170.091 232.4 160.791 225 160.791 225C160.791 225 165.091 231 166.391 235.8Z" fill="white"/>
</g>
</g>
<g id="img/cloud1">
<path id="Vector_67" d="M201.679 206.346C211.04 206.346 219.049 199.963 219.049 191.651C219.049 184.017 212.308 178.01 203.958 177.24C203.963 177.058 203.963 176.88 203.963 176.701V176.673C203.963 167.245 196.352 159.517 186.808 159.517C183.573 159.517 180.489 160.396 177.895 161.962C176.556 152.961 168.891 146.144 159.526 146.144C154.916 146.144 150.66 147.832 147.391 150.656C143.559 139.167 132.661 130.951 119.939 130.951C104.01 130.951 91.1325 143.801 90.9112 159.569C90.5863 159.544 90.2215 159.517 89.8755 159.517C81.085 159.517 74.0039 166.598 74.0039 175.389C74.0039 176.173 74.0581 176.908 74.1668 177.627C66.6058 179.569 60.9512 185.472 60.9512 192.721C60.9512 201.564 69.4904 208.486 79.6045 208.486C87.3782 208.486 94.0632 204.538 96.8934 198.724C102.887 205.725 112.519 210.198 123.363 210.198C132.261 210.198 140.365 207.132 146.284 202.152C151.361 206.071 158.383 208.486 166.266 208.486C175.015 208.486 182.841 205.423 187.916 200.618C191.085 204.135 196.075 206.346 201.679 206.346Z" fill="#D1E1F3" stroke="#6E8ECF" stroke-width="2" stroke-miterlimit="10"/>
<path id="Vector_68" d="M189.59 186.516C182.1 186.944 175.895 182.771 174.718 176.887C170.866 180.417 165.196 182.771 158.884 183.199C149.362 183.734 141.444 179.561 139.305 173.249C134.597 180.845 125.61 186.409 115.339 186.944C109.669 187.265 104.426 186.088 100.146 183.734C98.5416 189.511 92.4432 194.005 85.3819 194.433C77.1437 194.968 70.6174 189.725 70.8313 182.771C70.8313 182.129 70.9383 181.487 71.0453 180.845C70.8313 180.631 70.7244 180.31 70.5104 180.096C72.0082 179.347 73.6131 178.813 75.3249 178.385C75.1109 177.422 75.0039 176.459 75.0039 175.389C75.0039 167.151 81.6373 160.517 89.8755 160.517C90.5174 160.517 91.2663 160.624 91.9083 160.624C91.9083 160.41 91.9083 160.196 91.9083 159.982C91.9083 144.576 104.426 131.951 119.939 131.951C132.778 131.951 143.691 140.617 146.901 152.493C150.111 149.176 154.604 147.144 159.526 147.144C168.941 147.144 176.537 154.419 177.072 163.727C179.747 161.694 183.17 160.517 186.808 160.517C198.802 160.517 204.501 172.916 202.836 177.965C201.718 181.354 198.414 185.978 189.59 186.516Z" fill="white"/>
</g>
</g>
<defs>
<radialGradient id="paint0_radial" cx="0" cy="0" r="1" gradientUnits="userSpaceOnUse" gradientTransform="translate(140 130) rotate(90) scale(100)">
<stop/>
<stop offset="0.640625"/>
<stop offset="1" stop-opacity="0"/>
</radialGradient>
<linearGradient id="paint1_linear" x1="91.2127" y1="210" x2="91.2127" y2="236.11" gradientUnits="userSpaceOnUse">
<stop stop-color="#1AA1E6"/>
<stop offset="1" stop-color="white"/>
</linearGradient>
<linearGradient id="paint2_linear" x1="140.063" y1="210" x2="140.063" y2="236.11" gradientUnits="userSpaceOnUse">
<stop stop-color="#1AA1E6"/>
<stop offset="1" stop-color="white"/>
</linearGradient>
<linearGradient id="paint3_linear" x1="115.638" y1="221.3" x2="115.638" y2="247.411" gradientUnits="userSpaceOnUse">
<stop stop-color="#1AA1E6"/>
<stop offset="1" stop-color="white"/>
</linearGradient>
<linearGradient id="paint4_linear" x1="188.914" y1="210" x2="188.914" y2="236.11" gradientUnits="userSpaceOnUse">
<stop stop-color="#1AA1E6"/>
<stop offset="1" stop-color="white"/>
</linearGradient>
<linearGradient id="paint5_linear" x1="164.489" y1="221.3" x2="164.489" y2="247.411" gradientUnits="userSpaceOnUse">
<stop stop-color="#1AA1E6"/>
<stop offset="1" stop-color="white"/>
</linearGradient>
</defs>
</svg>
