<svg width="280" height="280" viewBox="0 0 280 280" fill="none" xmlns="http://www.w3.org/2000/svg">
<mask id="mask0" mask-type="alpha" maskUnits="userSpaceOnUse" x="40" y="30" width="200" height="160">
<rect x="40" y="30" width="200" height="160" fill="#C4C4C4"/>
</mask>
<g mask="url(#mask0)">
<path d="M140 30C195.224 30 240 74.7761 240 130C240 185.224 195.224 230 140 230C84.7761 230 40 185.224 40 130C40 74.7761 84.7761 30 140 30Z" fill="url(#paint0_radial)"/>
<path d="M90.9453 79.4528L96.4179 75.3732L92.3383 80.8458C92.0398 80.2488 91.5423 79.7513 90.9453 79.4528ZM87.9602 78.9552L88.9552 72.2886L89.9502 78.9552C89.6517 78.8557 89.2537 78.8557 88.9552 78.8557C88.5572 78.8557 88.2587 78.9552 87.9602 78.9552ZM85.5721 80.8458L81.4925 75.3732L86.9652 79.4528C86.3682 79.7513 85.8706 80.2488 85.5721 80.8458ZM84.9751 82.8358C84.9751 83.1343 84.9751 83.5324 85.0746 83.8309L78.408 82.8358L85.0746 81.8408C85.0746 82.1393 84.9751 82.4378 84.9751 82.8358ZM86.9652 86.2189L81.4925 90.199L85.5721 84.7264C85.8706 85.3234 86.3682 85.8209 86.9652 86.2189ZM89.9502 86.6169L88.9552 93.2836L87.9602 86.6169C88.2587 86.7164 88.6567 86.7164 88.9552 86.7164C89.2537 86.7164 89.6517 86.7164 89.9502 86.6169ZM88.9552 86.0199C87.1642 86.0199 85.6716 84.5274 85.6716 82.8358C85.6716 81.0448 87.1642 79.6518 88.9552 79.6518C90.7463 79.6518 92.2388 81.1443 92.2388 82.8358C92.1393 84.6269 90.7463 86.0199 88.9552 86.0199ZM92.3383 84.8259L96.4179 90.2985L90.9453 86.2189C91.5423 85.8209 92.0398 85.3234 92.3383 84.8259ZM99.5025 82.8358L92.8358 83.8309C92.9353 83.5324 92.9353 83.1343 92.9353 82.8358C92.9353 82.5373 92.9353 82.1393 92.8358 81.8408L99.5025 82.8358Z" fill="#CCEEFF"/>
<path d="M118.905 44.7264L123.085 41.6418L120 45.7214C119.801 45.4229 119.403 45.0249 118.905 44.7264ZM116.716 44.4279L117.512 39.3533L118.308 44.4279C118.109 44.3284 117.811 44.3284 117.512 44.3284C117.214 44.3284 116.915 44.4279 116.716 44.4279ZM114.826 45.8209L111.741 41.7413L115.92 44.8259C115.522 45.0249 115.124 45.4229 114.826 45.8209ZM114.428 47.3135C114.428 47.612 114.428 47.811 114.527 48.1095L109.453 47.3135L114.527 46.5175C114.527 46.816 114.428 47.1145 114.428 47.3135ZM115.92 49.9005L111.741 52.9851L114.826 48.9055C115.124 49.3035 115.522 49.602 115.92 49.9005ZM118.209 50.199L117.413 55.2737L116.617 50.199C116.816 50.2985 117.114 50.2985 117.413 50.2985C117.711 50.2985 117.91 50.2985 118.209 50.199ZM117.413 49.801C116.02 49.801 114.925 48.7065 114.925 47.3135C114.925 45.9204 116.02 44.8259 117.413 44.8259C118.806 44.8259 119.901 45.9204 119.901 47.3135C119.901 48.7065 118.806 49.801 117.413 49.801ZM120 48.806L123.085 52.8856L118.905 49.801C119.403 49.602 119.801 49.3035 120 48.806ZM125.373 47.3135L120.299 48.1095C120.398 47.9105 120.398 47.612 120.398 47.3135C120.398 47.015 120.398 46.816 120.299 46.5175L125.373 47.3135Z" fill="#CCEEFF"/>
<path d="M128.905 84.7262L133.085 81.6416L130 85.7212C129.801 85.4227 129.403 85.0247 128.905 84.7262ZM126.716 84.4277L127.512 79.353L128.308 84.4277C128.109 84.3282 127.811 84.3282 127.512 84.3282C127.214 84.3282 126.915 84.4277 126.716 84.4277ZM124.826 85.8207L121.741 81.7411L125.92 84.8257C125.522 85.0247 125.124 85.4227 124.826 85.8207ZM124.428 87.3132C124.428 87.6117 124.428 87.8107 124.527 88.1092L119.453 87.3132L124.527 86.5172C124.527 86.8157 124.428 87.1142 124.428 87.3132ZM125.92 89.9003L121.741 92.9849L124.826 88.9053C125.124 89.3033 125.522 89.6018 125.92 89.9003ZM128.209 90.1988L127.413 95.2734L126.617 90.1988C126.816 90.2983 127.114 90.2983 127.413 90.2983C127.711 90.2983 127.91 90.2983 128.209 90.1988ZM127.413 89.8008C126.02 89.8008 124.925 88.7063 124.925 87.3132C124.925 85.9202 126.02 84.8257 127.413 84.8257C128.806 84.8257 129.901 85.9202 129.901 87.3132C129.901 88.7063 128.806 89.8008 127.413 89.8008ZM130 88.8058L133.085 92.8854L128.905 89.8008C129.403 89.6018 129.801 89.3033 130 88.8058ZM135.373 87.3132L130.299 88.1092C130.398 87.9102 130.398 87.6117 130.398 87.3132C130.398 87.0147 130.398 86.8157 130.299 86.5172L135.373 87.3132Z" fill="#CCEEFF"/>
<path d="M190.547 72.587L194.726 69.5024L191.642 73.582C191.443 73.2835 191.045 72.8855 190.547 72.587ZM188.358 72.2885L189.154 67.2139L189.95 72.2885C189.751 72.189 189.453 72.189 189.154 72.189C188.856 72.189 188.557 72.2885 188.358 72.2885ZM186.468 73.6815L183.383 69.6019L187.562 72.6865C187.164 72.8855 186.766 73.2835 186.468 73.6815ZM186.07 75.1741C186.07 75.4726 186.07 75.6716 186.169 75.9701L181.094 75.1741L186.169 74.378C186.169 74.6766 186.07 74.9751 186.07 75.1741ZM187.562 77.7611L183.383 80.8457L186.468 76.7661C186.766 77.1641 187.164 77.4626 187.562 77.7611ZM189.851 78.0596L189.055 83.1343L188.259 78.0596C188.458 78.1591 188.756 78.1591 189.055 78.1591C189.353 78.1591 189.552 78.1591 189.851 78.0596ZM189.055 77.6616C187.662 77.6616 186.567 76.5671 186.567 75.1741C186.567 73.781 187.662 72.6865 189.055 72.6865C190.448 72.6865 191.542 73.781 191.542 75.1741C191.542 76.5671 190.448 77.6616 189.055 77.6616ZM191.642 76.6666L194.726 80.7462L190.547 77.6616C191.045 77.4626 191.443 77.1641 191.642 76.6666ZM197.015 75.1741L191.94 75.9701C192.04 75.7711 192.04 75.4726 192.04 75.1741C192.04 74.8756 192.04 74.6766 191.94 74.378L197.015 75.1741Z" fill="#CCEEFF"/>
<path d="M170.547 59.5524L176.02 55.4728L171.94 60.9454C171.642 60.3484 171.144 59.8509 170.547 59.5524ZM167.562 59.0549L168.557 52.3882L169.552 59.0549C169.254 58.9553 168.856 58.9553 168.557 58.9553C168.159 58.9553 167.861 59.0549 167.562 59.0549ZM165.174 60.9454L161.095 55.4728L166.567 59.5524C165.97 59.8509 165.473 60.3484 165.174 60.9454ZM164.577 62.9354C164.577 63.234 164.577 63.632 164.677 63.9305L158.01 62.9354L164.677 61.9404C164.677 62.2389 164.577 62.5374 164.577 62.9354ZM166.567 66.3185L161.095 70.3981L165.174 64.9255C165.473 65.423 165.97 65.9205 166.567 66.3185ZM169.552 66.7165L168.557 73.3832L167.562 66.7165C167.861 66.816 168.259 66.816 168.557 66.816C168.856 66.816 169.254 66.816 169.552 66.7165ZM168.557 66.1195C166.766 66.1195 165.274 64.627 165.274 62.9354C165.274 61.1444 166.766 59.7514 168.557 59.7514C170.348 59.7514 171.841 61.2439 171.841 62.9354C171.741 64.7265 170.348 66.1195 168.557 66.1195ZM171.94 64.9255L176.02 70.3981L170.547 66.3185C171.144 65.9205 171.642 65.423 171.94 64.9255ZM179.105 62.9354L172.438 63.9305C172.537 63.632 172.537 63.234 172.537 62.9354C172.537 62.6369 172.537 62.2389 172.438 61.9404L179.105 62.9354Z" fill="#CCEEFF"/>
</g>
<path d="M65.8 169.9C65.8 179.411 75.0211 186.9 85.9 186.9C92.4354 186.9 98.2924 184.252 101.973 180.081C107.844 185.662 117.044 189.3 127.3 189.3C136.446 189.3 144.792 186.462 150.581 181.904C157.52 187.744 166.993 191.3 177.4 191.3C190.105 191.3 201.385 185.962 208.318 177.752C211.529 184.567 219.366 189.3 228.5 189.3C240.274 189.3 250.2 181.315 250.2 171C250.2 162.599 243.515 155.676 234.648 153.53C234.787 152.671 234.9 151.741 234.9 150.8C234.9 140.648 226.652 132.4 216.5 132.4C216.056 132.4 215.616 132.428 215.197 132.469C214.968 114.017 200.008 99.2002 181.5 99.2002C166.622 99.2002 153.944 108.933 149.519 122.339C145.729 118.941 140.674 116.9 135.2 116.9C124.452 116.9 115.406 124.922 113.968 135.418C110.897 133.498 107.317 132.4 103.5 132.4C92.4443 132.4 83.6 141.351 83.6 152.3V152.327C83.6 152.579 83.6 152.829 83.6091 153.086C73.7299 154.106 65.8 161.115 65.8 169.9Z" fill="#D1E1F3" stroke="#6E8ECF" stroke-width="2" stroke-miterlimit="10"/>
<path d="M99.9999 163.9C108.8 164.4 116 159.5 117.4 152.6C121.9 156.7 128.6 159.5 135.9 159.9C147 160.6 156.2 155.6 158.8 148.3C164.2 157.2 174.8 163.6 186.8 164.3C193.5 164.7 199.6 163.3 204.6 160.5C206.5 167.2 213.5 172.5 221.9 173C231.5 173.6 239.1 167.5 238.9 159.3C238.9 158.5 238.8 157.8 238.6 157C238.8 156.7 239 156.4 239.2 156.1C237.5 155.2 235.6 154.5 233.6 154.1C233.8 153 234 151.8 234 150.6C234 141 226.2 133.2 216.6 133.2C215.8 133.2 215 133.3 214.3 133.4C214.3 133.2 214.3 132.9 214.3 132.7C214.3 114.6 199.7 100 181.6 100C166.6 100 153.9 110.2 150.1 124C146.4 120.1 141.1 117.7 135.3 117.7C124.4 117.9 115.4 126.4 114.8 137.2C111.6 134.8 107.7 133.4 103.5 133.4C89.6591 133.4 82.6072 147.896 84.6 153.975C85.9003 157.941 89.7674 163.298 99.9999 163.9Z" fill="white"/>
<path d="M194.3 204.4C205.179 204.4 214.4 196.911 214.4 187.4C214.4 178.621 206.571 171.606 196.691 170.586C196.7 170.329 196.7 170.079 196.7 169.827V169.8C196.7 158.851 187.856 149.9 176.8 149.9C172.983 149.9 169.403 150.998 166.333 152.918C164.893 142.419 155.84 134.4 145 134.4C139.526 134.4 134.471 136.441 130.681 139.839C126.256 126.433 113.578 116.7 98.7 116.7C80.1916 116.7 65.2324 131.517 65.0027 149.969C64.5845 149.928 64.1443 149.9 63.7 149.9C53.5477 149.9 45.3 158.148 45.3 168.3C45.3 169.241 45.4132 170.171 45.5516 171.03C36.6854 173.176 30 180.099 30 188.5C30 198.815 39.9262 206.8 51.7 206.8C60.8343 206.8 68.6709 202.067 71.882 195.252C78.8148 203.462 90.0953 208.8 102.8 208.8C113.207 208.8 122.68 205.244 129.619 199.404C135.408 203.962 143.754 206.8 152.9 206.8C163.156 206.8 172.356 203.162 178.227 197.581C181.908 201.752 187.765 204.4 194.3 204.4Z" fill="#80B5D6" stroke="#6E8ECF" stroke-width="2" stroke-miterlimit="10"/>
<path d="M180.2 181.4C171.4 181.9 164.2 177 162.8 170.1C158.3 174.2 151.6 177 144.3 177.4C133.2 178.1 124 173.1 121.4 165.8C116 174.7 105.4 181.1 93.4 181.8C86.7 182.2 80.6 180.8 75.6 178C73.7 184.7 66.7 190 58.3 190.5C48.7 191.1 41.1 185 41.3 176.8C41.3 176 41.4 175.3 41.6 174.5C41.4 174.2 41.2 173.9 41 173.6C42.7 172.7 44.6 172 46.6 171.6C46.4 170.5 46.2 169.3 46.2 168.1C46.2 158.5 54 150.7 63.6 150.7C64.4 150.7 65.2 150.8 65.9 150.9C65.9 150.7 65.9 150.4 65.9 150.2C65.9 132.1 80.5 117.5 98.6 117.5C113.6 117.5 126.3 127.7 130.1 141.5C133.8 137.6 139.1 135.2 144.9 135.2C155.8 135.2 164.8 143.7 165.4 154.5C168.6 152.1 172.5 150.7 176.7 150.7C190.654 150.7 197.967 165.134 195.418 171.971C193.956 175.892 189.993 180.824 180.2 181.4Z" fill="#96D3EE"/>
<path d="M54.5444 208.805C51.3616 222.784 45.9054 230.685 48.0272 238.13C49.9975 245.575 57.7272 249.981 65.1537 248.006C72.5802 246.031 76.9755 238.282 75.0052 230.837C72.8834 223.392 65.0021 219.289 54.5444 208.805Z" fill="url(#paint1_linear)" stroke="#6B92A8" stroke-width="2" stroke-miterlimit="10"/>
<path d="M64.3959 230.837C66.3662 238.13 63.4865 242.233 58.9397 243.448C58.0303 243.752 57.1209 243.752 56.2116 243.6C58.485 244.816 61.2131 245.119 63.9412 244.512C69.7006 242.992 73.0349 237.067 71.5193 231.445C70.0037 225.671 55.9084 214.427 55.9084 214.427C55.9084 214.427 62.4256 223.544 64.3959 230.837Z" fill="white"/>
<path d="M94.4943 225.975C91.3115 239.953 85.8553 247.854 87.9772 255.299C89.9475 262.744 97.6771 267.151 105.104 265.176C112.53 263.2 116.925 255.451 114.955 248.006C112.833 240.561 104.952 236.459 94.4943 225.975Z" fill="url(#paint2_linear)" stroke="#6B92A8" stroke-width="2" stroke-miterlimit="10"/>
<path d="M104.346 248.006C106.316 255.3 103.436 259.402 98.8896 260.618C97.9803 260.921 97.0709 260.921 96.1615 260.769C98.435 261.985 101.163 262.289 103.891 261.681C109.651 260.162 112.985 254.236 111.469 248.614C109.954 242.84 95.8584 231.597 95.8584 231.597C95.8584 231.597 102.376 240.713 104.346 248.006Z" fill="white"/>
<path fill-rule="evenodd" clip-rule="evenodd" d="M138.861 219.66L118.5 222.1L147.4 172.1L171.1 172L148.784 206.305L168.2 203.3L123.2 266.8L138.861 219.66Z" fill="url(#paint3_linear)"/>
<path d="M138.861 219.66L139.81 219.976L140.306 218.48L138.742 218.668L138.861 219.66ZM118.5 222.1L117.634 221.6L116.634 223.331L118.619 223.093L118.5 222.1ZM147.4 172.1L147.396 171.1L146.822 171.102L146.534 171.6L147.4 172.1ZM171.1 172L171.938 172.545L172.949 170.992L171.096 171L171.1 172ZM148.784 206.305L147.946 205.76L146.725 207.635L148.937 207.293L148.784 206.305ZM168.2 203.3L169.016 203.878L170.382 201.95L168.047 202.312L168.2 203.3ZM123.2 266.8L122.251 266.485L120.135 272.855L124.016 267.378L123.2 266.8ZM138.742 218.668L118.381 221.107L118.619 223.093L138.979 220.653L138.742 218.668ZM119.366 222.6L148.266 172.6L146.534 171.6L117.634 221.6L119.366 222.6ZM147.404 173.1L171.104 173L171.096 171L147.396 171.1L147.404 173.1ZM170.262 171.455L147.946 205.76L149.622 206.85L171.938 172.545L170.262 171.455ZM148.937 207.293L168.353 204.288L168.047 202.312L148.631 205.317L148.937 207.293ZM167.384 202.722L122.384 266.222L124.016 267.378L169.016 203.878L167.384 202.722ZM124.149 267.115L139.81 219.976L137.912 219.345L122.251 266.485L124.149 267.115Z" fill="#E08800"/>
<path d="M211.494 208.805C208.312 222.784 202.855 230.685 204.977 238.13C206.947 245.575 214.677 249.981 222.104 248.006C229.53 246.031 233.925 238.282 231.955 230.837C229.833 223.392 221.952 219.289 211.494 208.805Z" fill="url(#paint4_linear)" stroke="#6B92A8" stroke-width="2" stroke-miterlimit="10"/>
<path d="M221.346 230.837C223.316 238.13 220.436 242.233 215.89 243.448C214.98 243.752 214.071 243.752 213.162 243.6C215.435 244.816 218.163 245.119 220.891 244.512C226.651 242.992 229.985 237.067 228.469 231.445C226.954 225.671 212.858 214.427 212.858 214.427C212.858 214.427 219.376 223.544 221.346 230.837Z" fill="white"/>
<path d="M172.494 225.975C169.312 239.953 163.855 247.854 165.977 255.299C167.947 262.744 175.677 267.151 183.104 265.176C190.53 263.2 194.925 255.451 192.955 248.006C190.833 240.561 182.952 236.459 172.494 225.975Z" fill="url(#paint5_linear)" stroke="#6B92A8" stroke-width="2" stroke-miterlimit="10"/>
<path d="M182.346 248.006C184.316 255.3 181.436 259.402 176.89 260.618C175.98 260.921 175.071 260.921 174.162 260.769C176.435 261.985 179.163 262.289 181.891 261.681C187.651 260.162 190.985 254.236 189.469 248.614C187.954 242.84 173.858 231.597 173.858 231.597C173.858 231.597 180.376 240.713 182.346 248.006Z" fill="white"/>
<defs>
<radialGradient id="paint0_radial" cx="0" cy="0" r="1" gradientUnits="userSpaceOnUse" gradientTransform="translate(140 130) rotate(90) scale(100)">
<stop/>
<stop offset="0.640625"/>
<stop offset="1" stop-opacity="0"/>
</radialGradient>
<linearGradient id="paint1_linear" x1="61.5129" y1="208.805" x2="61.5129" y2="248.478" gradientUnits="userSpaceOnUse">
<stop stop-color="#1AA1E6"/>
<stop offset="1" stop-color="white"/>
</linearGradient>
<linearGradient id="paint2_linear" x1="101.463" y1="225.975" x2="101.463" y2="265.647" gradientUnits="userSpaceOnUse">
<stop stop-color="#1AA1E6"/>
<stop offset="1" stop-color="white"/>
</linearGradient>
<linearGradient id="paint3_linear" x1="144.8" y1="172" x2="144.8" y2="266.8" gradientUnits="userSpaceOnUse">
<stop stop-color="#FFFD1A"/>
<stop offset="1" stop-color="#F38501"/>
</linearGradient>
<linearGradient id="paint4_linear" x1="218.463" y1="208.805" x2="218.463" y2="248.478" gradientUnits="userSpaceOnUse">
<stop stop-color="#1AA1E6"/>
<stop offset="1" stop-color="white"/>
</linearGradient>
<linearGradient id="paint5_linear" x1="179.463" y1="225.975" x2="179.463" y2="265.647" gradientUnits="userSpaceOnUse">
<stop stop-color="#1AA1E6"/>
<stop offset="1" stop-color="white"/>
</linearGradient>
</defs>
</svg>
